<svg width="72" height="65" viewBox="0 0 72 65" fill="none" xmlns="http://www.w3.org/2000/svg">
<path fill-rule="evenodd" clip-rule="evenodd" d="M34.2694 0C31.5146 0.473791 28.9297 2.0914 27.3354 4.85281L1.35466 49.8528C-2.49434 56.5195 2.31692 64.8528 10.0149 64.8528H34.2694V58.1028H12.384C9.35676 58.1028 7.42667 54.8703 8.86271 52.2053L32.4744 8.38753C32.9065 7.58565 33.544 7.01315 34.2694 6.67001V0ZM38.2694 58.1028H59.6073C62.6346 58.1028 64.5647 54.8703 63.1286 52.2053L39.517 8.38752C39.1976 7.79476 38.7659 7.32734 38.2694 6.98526V0.109792C40.8164 0.694164 43.1677 2.27517 44.6559 4.85281L70.6367 49.8528C74.4857 56.5195 69.6744 64.8528 61.9764 64.8528H38.2694V58.1028Z" fill="white"/>
<path d="M42.2714 14.6118C43.3006 12.657 45.7195 11.9067 47.6743 12.9358L49.4084 13.8488C49.8971 14.1061 50.0846 14.7108 49.8274 15.1995L32.2509 48.5845C31.9936 49.0732 31.3889 49.2608 30.9002 49.0035L29.1661 48.0906C27.2114 47.0614 26.461 44.6425 27.4901 42.6877L42.2714 14.6118Z" fill="white"/>
<path d="M36.2955 43.0523C34.0864 43.0638 32.2862 41.2823 32.2747 39.0732C32.2718 38.521 32.7171 38.0709 33.2694 38.068L61.0257 37.9228C61.578 37.9199 62.0281 38.3653 62.0309 38.9176C62.0425 41.1267 60.261 42.9269 58.0519 42.9384L36.2955 43.0523Z" fill="white"/>
</svg>
