<svg width="720" height="456" viewBox="0 0 720 456" fill="none" xmlns="http://www.w3.org/2000/svg">
<g clip-path="url(#clip0_15_297)">
<path d="M602.46 35.65H0.669922C1.5199 30.83 3.17987 26.27 5.49988 22.14C12.9099 8.94 27.0399 0 43.2299 0H559.9C576.08 0 590.22 8.94 597.62 22.14C599.94 26.27 601.61 30.83 602.46 35.65Z" fill="#F2F2F2"/>
<path d="M719.53 453.7C719.53 454.36 719 454.89 718.34 454.89H471.05C470.39 454.89 469.86 454.36 469.86 453.7C469.86 453.38 469.98 453.1 470.18 452.89H559.9C561.81 452.89 563.68 452.76 565.52 452.51H718.34C719 452.51 719.53 453.04 719.53 453.7Z" fill="#3F3D56"/>
<path d="M442.219 211.14H160.905C158.29 211.14 156.163 208.448 156.163 205.14C156.163 201.831 158.29 199.14 160.905 199.14H442.219C444.833 199.14 446.96 201.831 446.96 205.14C446.96 208.448 444.833 211.14 442.219 211.14Z" fill="#E6E6E6"/>
<path d="M602.46 35.65C601.61 30.83 599.94 26.27 597.62 22.14C590.22 8.94 576.08 0 559.9 0H43.23C27.04 0 12.91 8.94 5.5 22.14C3.17999 26.27 1.52002 30.83 0.67004 35.65C0.23004 38.11 0 40.64 0 43.23V411.66C0 435.5 19.39 454.89 43.23 454.89H559.9C564.84 454.89 569.6 454.05 574.03 452.51C590.95 446.65 603.13 430.55 603.13 411.66V43.23C603.13 40.65 602.9 38.11 602.46 35.65ZM601.13 411.66C601.13 432.52 585.63 449.77 565.52 452.51C563.68 452.76 561.81 452.89 559.9 452.89H104.64C47.95 452.89 2 406.93 2 350.24V43.23C2 40.64 2.23999 38.11 2.70001 35.65C3.60003 30.79 5.35003 26.24 7.79999 22.14C14.99 10.08 28.17 2 43.23 2H559.9C574.96 2 588.14 10.08 595.33 22.14C597.78 26.24 599.53 30.79 600.43 35.65C600.89 38.11 601.13 40.64 601.13 43.23V411.66Z" fill="#3F3D56"/>
<path d="M575.926 216.079L572.542 203.671L587.77 198.031L589.462 209.311L575.926 216.079Z" fill="#FFB6B6"/>
<path opacity="0.1" d="M575.926 216.079L572.542 203.671L581.51 199.889L578.724 214.516L575.926 216.079Z" fill="black"/>
<path d="M531.35 322.417C528.441 320.686 528.288 315.578 531.007 311.008C532.197 309.007 533.741 307.441 535.344 306.458L536.941 303.849L557.143 267.633C557.143 267.633 565.986 233.476 569.587 229.346C573.187 225.217 578.392 226.19 578.392 226.19L583.009 230.291L566.53 278.668L546.195 307.306L543.469 311.292C543.37 313.17 542.73 315.274 541.54 317.274C538.82 321.845 534.258 324.147 531.35 322.417Z" fill="#FFB6B6"/>
<path d="M575.094 212.535C575.094 212.535 581.519 212.287 585.573 217.278C589.627 222.27 568.388 278.527 568.388 278.527L551.089 277.915L575.094 212.535Z" fill="#3348F2"/>
<path d="M576.772 205.646C585.494 205.646 592.564 198.576 592.564 189.854C592.564 181.133 585.494 174.062 576.772 174.062C568.051 174.062 560.981 181.133 560.981 189.854C560.981 198.576 568.051 205.646 576.772 205.646Z" fill="#FFB6B6"/>
<path d="M539.831 419.113L529.116 445.62L522.912 439.416L520.656 427.573L529.68 416.293L539.831 419.113Z" fill="#FFB6B6"/>
<path d="M640.22 409.525L650.936 421.933L645.86 432.085L634.581 430.393L628.941 414.601L640.22 409.525Z" fill="#FFB6B6"/>
<path d="M568.876 261.479L567.466 284.321L602.433 278.117L600.177 264.017L568.876 261.479Z" fill="#FFB6B6"/>
<path d="M567.184 284.604L602.433 273.042C602.433 273.042 615.405 298.985 601.305 315.341C587.206 331.696 540.395 424.754 540.395 424.754L526.296 417.986L546.599 358.768L569.158 304.061L567.184 284.604Z" fill="#2F2E41"/>
<path d="M601.306 305.753L614.841 364.971L643.04 410.654L628.377 419.114L588.898 364.971L575.926 323.236L601.306 305.753Z" fill="#2F2E41"/>
<path d="M515.58 425.317H505.812C505.812 425.317 494.415 420.805 491.744 425.317C489.073 429.829 503.662 442.625 503.662 442.625C503.662 442.625 524.04 454.08 526.86 453.516C529.68 452.952 530.808 446.184 530.808 446.184L534.191 438.288L529.116 439.98C529.116 439.98 522.348 436.032 524.04 429.265L515.58 425.317Z" fill="#2F2E41"/>
<path d="M648.68 423.625V417.985L655.237 423.625C655.237 423.625 666.164 427.573 657.704 436.033C649.244 444.493 638.528 453.516 638.528 453.516C638.528 453.516 621.609 458.028 620.481 452.952C619.353 447.877 620.481 445.823 620.481 445.823L626.685 442.801L632.324 428.137L641.348 429.265L648.68 423.625Z" fill="#2F2E41"/>
<path d="M581.566 192.956L576.49 192.392L567.184 183.086C567.184 183.086 558.725 187.598 558.725 184.214C558.725 168.423 568.312 168.987 576.208 167.859C584.104 166.731 583.258 166.449 585.796 170.678C586.956 172.613 591.154 173.78 591.154 173.78C591.154 173.78 599.049 163.065 602.997 176.036C606.945 189.008 601.869 229.051 605.817 232.435C609.765 235.819 589.607 239.198 591.79 225.946C593.974 212.695 597.922 192.392 595.666 187.88C593.41 183.368 592.846 184.496 592.846 184.496C595.641 183.355 597.468 203.46 586.927 204.445L586.642 194.648C586.642 194.648 584.95 189.572 581.566 192.956Z" fill="#2F2E41"/>
<path d="M574.516 212.413L591.436 205.646L613.995 273.324L567.579 271.633L563.4 251.433C563.4 251.433 559.319 240.92 562.703 234.716C566.087 228.512 574.516 212.413 574.516 212.413Z" fill="#3348F2"/>
<path d="M618.544 325.783C615.172 326.073 612.069 322.012 611.614 316.713C611.415 314.393 611.756 312.221 612.485 310.488L612.262 307.437L607.562 266.234C607.562 266.234 598.814 232.531 599.332 227.077C599.849 221.623 600.667 220.175 600.667 220.175L606.809 220.815L621.623 269.728L621.796 304.852L621.905 309.679C622.919 311.263 623.626 313.345 623.825 315.664C624.28 320.963 621.916 325.493 618.544 325.783Z" fill="#FFB6B6"/>
<path d="M590.026 211.004C590.026 211.004 595.102 207.056 601.306 208.748C607.509 210.44 623.05 268.53 623.05 268.53L608.637 278.118L590.026 211.004Z" fill="#3348F2"/>
<path d="M296.205 308.64H228.55C224.421 308.64 221.061 305.28 221.061 301.151V294.385C221.061 290.256 224.421 286.897 228.55 286.897H296.205C300.334 286.897 303.694 290.256 303.694 294.385V301.151C303.694 305.28 300.334 308.64 296.205 308.64Z" fill="#3348F2"/>
<path d="M556.205 87.5107H488.55C484.421 87.5107 481.061 84.1514 481.061 80.0225V73.2559C481.061 69.1269 484.421 65.7686 488.55 65.7686H556.205C560.334 65.7686 563.694 69.127 563.694 73.2559V80.0225C563.694 84.1514 560.334 87.5107 556.205 87.5107Z" fill="#3348F2"/>
<path d="M396.573 309.14H328.917C324.513 309.14 320.929 305.556 320.929 301.151V294.385C320.929 289.98 324.513 286.397 328.917 286.397H396.573C400.978 286.397 404.561 289.98 404.561 294.385V301.151C404.561 305.556 400.978 309.14 396.573 309.14ZM328.917 288.397C325.616 288.397 322.929 291.083 322.929 294.385V301.151C322.929 304.453 325.616 307.14 328.917 307.14H396.573C399.875 307.14 402.561 304.453 402.561 301.151V294.385C402.561 291.083 399.875 288.397 396.573 288.397H328.917Z" fill="#3348F2"/>
<path d="M479.562 180.14H123.562C120.253 180.14 117.562 177.448 117.562 174.14C117.562 170.831 120.253 168.14 123.562 168.14H479.562C482.87 168.14 485.562 170.831 485.562 174.14C485.562 177.448 482.87 180.14 479.562 180.14Z" fill="#E6E6E6"/>
<path d="M100.89 82.6396H55.8899C52.5813 82.6396 49.8899 79.9482 49.8899 76.6396C49.8899 73.3311 52.5813 70.6396 55.8899 70.6396H100.89C104.198 70.6396 106.89 73.3311 106.89 76.6396C106.89 79.9482 104.198 82.6396 100.89 82.6396Z" fill="#E6E6E6"/>
<path d="M369.89 82.6396H324.89C321.581 82.6396 318.89 79.9482 318.89 76.6396C318.89 73.3311 321.581 70.6396 324.89 70.6396H369.89C373.199 70.6396 375.89 73.3311 375.89 76.6396C375.89 79.9482 373.199 82.6396 369.89 82.6396Z" fill="#E6E6E6"/>
<path d="M454.89 82.6396H409.89C406.581 82.6396 403.89 79.9482 403.89 76.6396C403.89 73.3311 406.581 70.6396 409.89 70.6396H454.89C458.199 70.6396 460.89 73.3311 460.89 76.6396C460.89 79.9482 458.199 82.6396 454.89 82.6396Z" fill="#E6E6E6"/>
<path d="M400.562 242.14H202.562C199.253 242.14 196.562 239.448 196.562 236.14C196.562 232.831 199.253 230.14 202.562 230.14H400.562C403.87 230.14 406.562 232.831 406.562 236.14C406.562 239.448 403.87 242.14 400.562 242.14Z" fill="#E6E6E6"/>
<path d="M409.189 373.395H193.934C191.933 373.395 190.306 371.768 190.306 369.768C190.306 367.767 191.933 366.14 193.934 366.14H409.189C411.19 366.14 412.817 367.767 412.817 369.768C412.817 371.768 411.19 373.395 409.189 373.395Z" fill="#E6E6E6"/>
<path d="M411.193 21.3955H195.937C193.937 21.3955 192.309 19.7681 192.309 17.7676C192.309 15.767 193.937 14.1396 195.937 14.1396H411.193C413.193 14.1396 414.821 15.767 414.821 17.7676C414.821 19.7681 413.193 21.3955 411.193 21.3955Z" fill="white"/>
</g>
<defs>
<clipPath id="clip0_15_297">
<rect width="719.53" height="455.365" fill="white"/>
</clipPath>
</defs>
</svg>
