<svg width="776" height="525" viewBox="0 0 776 525" fill="none" xmlns="http://www.w3.org/2000/svg">
<g clip-path="url(#clip0_25_448)">
<path d="M770.935 433.607H387.021C385.678 433.606 384.391 433.07 383.441 432.119C382.492 431.167 381.958 429.876 381.956 428.53V5.07737C381.958 3.73124 382.492 2.44069 383.441 1.48883C384.391 0.53697 385.678 0.00154002 387.021 0H770.935C772.278 0.00154002 773.565 0.53697 774.515 1.48883C775.464 2.44069 775.998 3.73124 776 5.07737V428.53C775.998 429.876 775.464 431.167 774.515 432.119C773.565 433.07 772.278 433.606 770.935 433.607ZM387.021 2.03095C386.215 2.03183 385.443 2.35307 384.873 2.9242C384.303 3.49532 383.983 4.26968 383.982 5.07737V428.53C383.983 429.338 384.303 430.112 384.873 430.683C385.443 431.254 386.215 431.576 387.021 431.576H770.935C771.741 431.576 772.513 431.254 773.083 430.683C773.653 430.112 773.973 429.338 773.974 428.53V5.07737C773.973 4.26968 773.653 3.49532 773.083 2.9242C772.513 2.35307 771.741 2.03183 770.935 2.03095H387.021Z" fill="#3F3D56"/>
<path d="M552.641 161.46H457.422C456.079 161.458 454.792 160.923 453.842 159.971C452.893 159.019 452.359 157.729 452.357 156.382V60.928C452.359 59.5818 452.893 58.2913 453.842 57.3394C454.792 56.3876 456.079 55.8521 457.422 55.8506H552.641C553.984 55.8521 555.271 56.3876 556.221 57.3394C557.17 58.2913 557.704 59.5818 557.706 60.928V156.382C557.704 157.729 557.17 159.019 556.221 159.971C555.271 160.923 553.984 161.458 552.641 161.46ZM457.422 57.8815C456.616 57.8824 455.844 58.2037 455.274 58.7748C454.704 59.3459 454.384 60.1203 454.383 60.928V156.382C454.384 157.19 454.704 157.965 455.274 158.536C455.844 159.107 456.616 159.428 457.422 159.429H552.641C553.447 159.428 554.219 159.107 554.789 158.536C555.358 157.965 555.679 157.19 555.68 156.382V60.928C555.679 60.1203 555.358 59.3459 554.789 58.7748C554.219 58.2037 553.447 57.8824 552.641 57.8815H457.422Z" fill="#F2F2F2"/>
<path d="M525.291 173.139H430.072C428.863 173.137 427.705 172.655 426.85 171.799C425.996 170.942 425.515 169.781 425.514 168.569V73.1146C425.515 71.903 425.996 70.7415 426.85 69.8849C427.705 69.0282 428.863 68.5463 430.072 68.5449H525.291C526.499 68.5463 527.658 69.0282 528.513 69.8848C529.367 70.7415 529.848 71.903 529.849 73.1146V168.569C529.848 169.781 529.367 170.942 528.513 171.799C527.658 172.656 526.499 173.137 525.291 173.139Z" fill="#3348F2"/>
<path d="M727.884 219.85H430.072C428.863 219.85 427.704 219.369 426.849 218.512C425.994 217.655 425.514 216.493 425.514 215.281C425.514 214.069 425.994 212.906 426.849 212.049C427.704 211.192 428.863 210.711 430.072 210.711H727.884C729.093 210.711 730.253 211.192 731.107 212.049C731.962 212.906 732.442 214.069 732.442 215.281C732.442 216.493 731.962 217.655 731.107 218.512C730.253 219.369 729.093 219.85 727.884 219.85Z" fill="#CCCCCC"/>
<path d="M655.964 251.33H430.072C428.863 251.33 427.704 250.848 426.849 249.991C425.994 249.134 425.514 247.972 425.514 246.76C425.514 245.548 425.994 244.386 426.849 243.529C427.704 242.672 428.863 242.19 430.072 242.19H655.964C657.172 242.19 658.332 242.672 659.187 243.529C660.042 244.386 660.522 245.548 660.522 246.76C660.522 247.972 660.042 249.134 659.187 249.991C658.332 250.848 657.172 251.33 655.964 251.33Z" fill="#CCCCCC"/>
<path d="M726.871 104.087H595.185C593.976 104.087 592.817 103.605 591.962 102.748C591.107 101.891 590.627 100.729 590.627 99.5169C590.627 98.305 591.107 97.1427 591.962 96.2857C592.817 95.4287 593.976 94.9473 595.185 94.9473H726.871C728.08 94.9473 729.239 95.4287 730.094 96.2857C730.949 97.1427 731.429 98.305 731.429 99.5169C731.429 100.729 730.949 101.891 730.094 102.748C729.239 103.605 728.08 104.087 726.871 104.087Z" fill="#CCCCCC"/>
<path d="M694.007 135.566H595.185C593.976 135.566 592.817 135.085 591.962 134.228C591.107 133.371 590.627 132.208 590.627 130.996C590.627 129.784 591.107 128.622 591.962 127.765C592.817 126.908 593.976 126.427 595.185 126.427H694.007C695.216 126.427 696.375 126.908 697.23 127.765C698.085 128.622 698.565 129.784 698.565 130.996C698.565 132.208 698.085 133.371 697.23 134.228C696.375 135.085 695.216 135.566 694.007 135.566Z" fill="#CCCCCC"/>
<path d="M727.884 282.809H430.072C428.863 282.809 427.704 282.328 426.849 281.471C425.994 280.614 425.514 279.451 425.514 278.24C425.514 277.028 425.994 275.865 426.849 275.008C427.704 274.151 428.863 273.67 430.072 273.67H727.884C729.093 273.67 730.253 274.151 731.107 275.008C731.962 275.865 732.442 277.028 732.442 278.24C732.442 279.451 731.962 280.614 731.107 281.471C730.253 282.328 729.093 282.809 727.884 282.809Z" fill="#CCCCCC"/>
<path d="M655.964 314.29H430.072C428.863 314.29 427.704 313.808 426.849 312.951C425.994 312.094 425.514 310.932 425.514 309.72C425.514 308.508 425.994 307.346 426.849 306.489C427.704 305.632 428.863 305.15 430.072 305.15H655.964C657.172 305.15 658.332 305.632 659.187 306.489C660.042 307.346 660.522 308.508 660.522 309.72C660.522 310.932 660.042 312.094 659.187 312.951C658.332 313.808 657.172 314.29 655.964 314.29Z" fill="#CCCCCC"/>
<path d="M727.884 345.769H430.072C428.863 345.769 427.704 345.288 426.849 344.431C425.994 343.574 425.514 342.411 425.514 341.2C425.514 339.988 425.994 338.825 426.849 337.968C427.704 337.111 428.863 336.63 430.072 336.63H727.884C729.093 336.63 730.253 337.111 731.107 337.968C731.962 338.825 732.442 339.988 732.442 341.2C732.442 342.411 731.962 343.574 731.107 344.431C730.253 345.288 729.093 345.769 727.884 345.769Z" fill="#CCCCCC"/>
<path d="M727.884 377.249H430.072C428.863 377.249 427.704 376.767 426.849 375.91C425.994 375.053 425.514 373.891 425.514 372.679C425.514 371.467 425.994 370.305 426.849 369.448C427.704 368.591 428.863 368.109 430.072 368.109H727.884C729.093 368.109 730.253 368.591 731.107 369.448C731.962 370.305 732.442 371.467 732.442 372.679C732.442 373.891 731.962 375.053 731.107 375.91C730.253 376.767 729.093 377.249 727.884 377.249Z" fill="#CCCCCC"/>
<path d="M487.739 394.319H269.952C268.609 394.318 267.321 393.782 266.372 392.83C265.422 391.879 264.888 390.588 264.887 389.242V254.184C264.888 252.838 265.422 251.547 266.372 250.595C267.321 249.643 268.609 249.108 269.952 249.106H487.739C489.082 249.108 490.369 249.643 491.319 250.595C492.269 251.547 492.803 252.838 492.804 254.184V389.242C492.803 390.588 492.269 391.879 491.319 392.83C490.369 393.782 489.082 394.318 487.739 394.319Z" fill="white"/>
<path d="M487.739 394.319H269.952C268.609 394.318 267.321 393.782 266.372 392.83C265.422 391.879 264.888 390.588 264.887 389.242V254.184C264.888 252.838 265.422 251.547 266.372 250.595C267.321 249.643 268.609 249.108 269.952 249.106H487.739C489.082 249.108 490.369 249.643 491.319 250.595C492.269 251.547 492.803 252.838 492.804 254.184V389.242C492.803 390.588 492.269 391.879 491.319 392.83C490.369 393.782 489.082 394.318 487.739 394.319ZM269.952 251.137C269.146 251.138 268.373 251.46 267.804 252.031C267.234 252.602 266.914 253.376 266.913 254.184V389.242C266.914 390.05 267.234 390.824 267.804 391.395C268.373 391.966 269.146 392.287 269.952 392.288H487.739C488.545 392.287 489.317 391.966 489.887 391.395C490.457 390.824 490.777 390.05 490.778 389.242V254.184C490.777 253.376 490.457 252.602 489.887 252.031C489.317 251.46 488.545 251.138 487.739 251.137H269.952Z" fill="#3F3D56"/>
<path d="M444.688 310.544H313.003C311.794 310.544 310.634 310.062 309.779 309.205C308.925 308.348 308.444 307.186 308.444 305.974C308.444 304.762 308.925 303.6 309.779 302.743C310.634 301.886 311.794 301.404 313.003 301.404H444.688C445.897 301.404 447.057 301.886 447.911 302.743C448.766 303.6 449.247 304.762 449.247 305.974C449.247 307.186 448.766 308.348 447.911 309.205C447.057 310.062 445.897 310.544 444.688 310.544Z" fill="#CCCCCC"/>
<path d="M444.688 342.023H313.003C311.794 342.023 310.634 341.542 309.779 340.685C308.925 339.828 308.444 338.665 308.444 337.453C308.444 336.241 308.925 335.079 309.779 334.222C310.634 333.365 311.794 332.884 313.003 332.884H444.688C445.897 332.884 447.057 333.365 447.911 334.222C448.766 335.079 449.247 336.241 449.247 337.453C449.247 338.665 448.766 339.828 447.911 340.685C447.057 341.542 445.897 342.023 444.688 342.023Z" fill="#CCCCCC"/>
<path d="M233.322 512.703H245.741L251.648 464.684L233.32 464.685L233.322 512.703Z" fill="#A0616A"/>
<path d="M230.154 508.64L254.611 508.639H254.612C258.745 508.639 262.71 510.285 265.633 513.215C268.555 516.145 270.198 520.119 270.198 524.263V524.771L230.155 524.772L230.154 508.64Z" fill="#2F2E41"/>
<path d="M136.625 507.314L148.904 509.175L161.906 462.581L145.809 459.835L136.625 507.314Z" fill="#A0616A"/>
<path d="M134.099 502.821L158.281 506.485L158.282 506.486C162.369 507.105 166.043 509.327 168.496 512.662C170.949 515.997 171.981 520.173 171.363 524.27L171.287 524.772L131.694 518.773L134.099 502.821Z" fill="#2F2E41"/>
<path d="M174.915 274.729L188.704 278.351L187.787 300.762L187.673 341.566C189.031 342.507 190.073 343.841 190.659 345.389C191.245 346.937 191.349 348.627 190.956 350.235C190.563 351.844 189.693 353.294 188.46 354.396C187.227 355.498 185.689 356.198 184.05 356.405C182.411 356.611 180.748 356.314 179.282 355.552C177.815 354.791 176.613 353.601 175.836 352.14C175.058 350.679 174.742 349.016 174.928 347.37C175.114 345.725 175.794 344.175 176.877 342.925L172.64 301.973L174.915 274.729Z" fill="#A0616A"/>
<path d="M172.515 249.06C172.591 246.894 173.288 244.796 174.522 243.017C175.756 241.237 177.475 239.852 179.473 239.025C181.344 238.186 183.419 237.913 185.442 238.239C187.466 238.566 189.35 239.477 190.864 240.862C191.953 241.837 192.816 243.038 193.393 244.381C193.971 245.725 194.249 247.178 194.209 248.641C194.245 261.77 191.289 280.906 191.259 281.097L191.212 281.402L171.057 288.206L172.515 249.06Z" fill="#3348F2"/>
<path d="M208.553 286.328L239.38 278.328L253.63 326.439L254.136 505.67L230.562 505.522L220.708 360.457L157.904 494.5L132.58 491.453L187.787 347.764C187.787 347.764 184.748 322.377 194.371 309.683L192.345 296.482L208.553 286.328Z" fill="#2F2E41"/>
<path d="M187.766 298.297C187.335 297.772 187.022 297.16 186.848 296.503C186.674 295.845 186.644 295.158 186.758 294.488L172.697 252.199C172.041 250.222 171.971 248.097 172.496 246.081C173.022 244.065 174.12 242.246 175.657 240.843L181.761 235.281L185.898 218.693L209.674 224.519L207.715 232.374L218.475 230.414L241.139 281.017L193.765 300L191.432 300.036C190.731 300.038 190.038 299.882 189.404 299.581C188.769 299.28 188.21 298.842 187.766 298.297Z" fill="#3348F2"/>
<path d="M220.767 262.592L234.351 258.264L245.526 277.696L267.187 312.242C268.837 312.31 270.428 312.878 271.749 313.873C273.07 314.867 274.059 316.24 274.584 317.809C275.11 319.379 275.148 321.072 274.693 322.664C274.238 324.256 273.312 325.671 272.037 326.724C270.762 327.777 269.198 328.417 267.553 328.559C265.907 328.701 264.257 328.34 262.821 327.521C261.385 326.703 260.23 325.467 259.51 323.977C258.79 322.487 258.538 320.813 258.788 319.176L233.37 286.835L220.767 262.592Z" fill="#A0616A"/>
<path d="M205.05 242.183C203.96 240.312 203.43 238.165 203.524 236C203.618 233.835 204.332 231.743 205.581 229.974C206.715 228.263 208.323 226.921 210.207 226.112C212.091 225.304 214.169 225.064 216.187 225.423C217.627 225.663 218.996 226.216 220.201 227.042C221.405 227.868 222.416 228.947 223.161 230.204C230.192 241.28 237.897 259.038 237.974 259.216L238.096 259.498L224.691 276.049L205.05 242.183Z" fill="#3348F2"/>
<path d="M203.489 215.607C213.922 215.607 222.38 207.129 222.38 196.67C222.38 186.211 213.922 177.732 203.489 177.732C193.056 177.732 184.598 186.211 184.598 196.67C184.598 207.129 193.056 215.607 203.489 215.607Z" fill="#A0616A"/>
<path d="M170.105 188.681C180.155 188.681 188.302 180.514 188.302 170.44C188.302 160.365 180.155 152.198 170.105 152.198C160.056 152.198 151.909 160.365 151.909 170.44C151.909 180.514 160.056 188.681 170.105 188.681Z" fill="#2F2E41"/>
<path d="M154.41 185.545C156.765 187.252 159.494 188.368 162.367 188.801C165.241 189.233 168.176 188.97 170.928 188.032C173.679 187.094 176.166 185.509 178.181 183.41C180.196 181.311 181.681 178.759 182.51 175.967C182.196 178.469 181.368 180.879 180.079 183.044C178.789 185.209 177.065 187.083 175.017 188.546C172.969 190.01 170.64 191.032 168.177 191.548C165.715 192.064 163.173 192.062 160.711 191.543C158.249 191.025 155.921 190 153.875 188.534C151.828 187.068 150.107 185.192 148.82 183.025C147.533 180.859 146.707 178.448 146.397 175.946C146.086 173.443 146.296 170.903 147.013 168.486C146.606 171.733 147.077 175.031 148.379 178.032C149.68 181.034 151.763 183.629 154.41 185.545Z" fill="#2F2E41"/>
<path d="M226.221 185.566C223.045 179.865 221.829 177.483 217.733 174.016C214.111 170.95 209.656 170.05 206.063 172.955C201.811 171.114 197.081 170.696 192.575 171.765C188.068 172.833 184.026 175.33 181.047 178.885C178.069 182.44 176.314 186.863 176.043 191.497C175.773 196.132 177 200.73 179.544 204.609C182.088 208.489 185.812 211.442 190.163 213.031C194.514 214.619 199.261 214.758 203.697 213.427C208.134 212.096 212.023 209.366 214.789 205.642C217.554 201.919 219.048 197.4 219.047 192.758C219.044 191.942 218.995 191.128 218.901 190.318C222.024 189.879 223.098 186.006 226.221 185.566Z" fill="#2F2E41"/>
<path d="M386.953 525H1.01297C0.744311 525 0.486658 524.893 0.29669 524.702C0.106722 524.512 0 524.254 0 523.984C0 523.715 0.106722 523.457 0.29669 523.266C0.486658 523.076 0.744311 522.969 1.01297 522.969H386.953C387.222 522.969 387.479 523.076 387.669 523.266C387.859 523.457 387.966 523.715 387.966 523.984C387.966 524.254 387.859 524.512 387.669 524.702C387.479 524.893 387.222 525 386.953 525Z" fill="#CCCCCC"/>
</g>
<defs>
<clipPath id="clip0_25_448">
<rect width="776" height="525" fill="white"/>
</clipPath>
</defs>
</svg>
