<svg width="866" height="712" viewBox="0 0 866 712" fill="none" xmlns="http://www.w3.org/2000/svg">
<g clip-path="url(#clip0_25_514)">
<path d="M443.986 168.892H440.086V61.915C440.086 45.4941 433.563 29.7458 421.952 18.1345C410.34 6.52317 394.592 8.07647e-09 378.171 8.07647e-09H151.521C143.39 -0.000131315 135.339 1.60122 127.827 4.71262C120.315 7.82401 113.49 12.3845 107.74 18.1338C101.991 23.883 97.4302 30.7084 94.3186 38.2202C91.207 45.7321 89.6054 53.7832 89.6052 61.914V648.798C89.6052 656.929 91.2067 664.98 94.3182 672.492C97.4298 680.004 101.99 686.829 107.74 692.579C113.489 698.328 120.315 702.888 127.826 706C135.338 709.112 143.389 710.713 151.52 710.713H378.168C394.589 710.713 410.337 704.19 421.949 692.579C433.56 680.967 440.083 665.219 440.083 648.798V245.04H443.983L443.986 168.892Z" fill="#3F3D56"/>
<path d="M427.459 57.7684V652.943C427.457 665.393 422.511 677.333 413.709 686.138C404.906 694.942 392.967 699.891 380.517 699.895H149.217C136.762 699.897 124.817 694.952 116.008 686.147C107.199 677.342 102.248 665.398 102.244 652.943V57.7684C102.248 45.3139 107.198 33.3708 116.007 24.566C124.815 15.7612 136.761 10.8158 149.215 10.8174H177.273C175.895 14.2054 175.371 17.8799 175.746 21.518C176.121 25.1561 177.384 28.6464 179.424 31.6821C181.464 34.7178 184.218 37.206 187.445 38.9279C190.672 40.6498 194.272 41.5527 197.929 41.5574H329.797C333.455 41.5527 337.055 40.6498 340.281 38.9279C343.508 37.206 346.262 34.7178 348.302 31.6821C350.342 28.6464 351.605 25.1561 351.98 21.518C352.355 17.8799 351.831 14.2054 350.453 10.8174H380.508C392.958 10.8195 404.898 15.7656 413.702 24.5682C422.506 33.3708 427.455 45.3094 427.459 57.7594V57.7684Z" fill="white"/>
<path d="M373.765 572.211H160.153C152.47 572.202 145.105 569.147 139.672 563.714C134.24 558.282 131.184 550.916 131.175 543.233V242.729C131.175 169.767 190.534 110.408 263.496 110.408H373.765C381.448 110.417 388.813 113.473 394.245 118.905C399.678 124.337 402.734 131.703 402.742 139.385V543.233C402.734 550.916 399.678 558.282 394.245 563.714C388.813 569.147 381.447 572.202 373.765 572.211Z" fill="#E6E6E6"/>
<path d="M147.357 644.546C155.851 644.546 162.736 637.661 162.736 629.168C162.736 620.674 155.851 613.789 147.357 613.789C138.864 613.789 131.979 620.674 131.979 629.168C131.979 637.661 138.864 644.546 147.357 644.546Z" fill="#E6E6E6"/>
<path d="M386.863 644.546C395.357 644.546 402.242 637.661 402.242 629.168C402.242 620.674 395.357 613.789 386.863 613.789C378.37 613.789 371.485 620.674 371.485 629.168C371.485 637.661 378.37 644.546 386.863 644.546Z" fill="#E6E6E6"/>
<path d="M388.948 571.619L379.414 582.009L334.805 550.181L348.876 534.847L388.948 571.619Z" fill="#FFB6B6"/>
<path d="M401.45 578.21L370.71 611.71L370.287 611.321C366.829 608.147 364.773 603.731 364.571 599.042C364.37 594.353 366.039 589.776 369.212 586.317L369.213 586.317L370.185 575.938L385.304 568.781L387.987 565.856L401.45 578.21Z" fill="#2F2E41"/>
<path d="M395.181 687.559L381.081 687.558L374.373 633.171L395.184 633.172L395.181 687.559Z" fill="#FFB6B6"/>
<path d="M398.777 701.227L353.312 701.225V700.65C353.312 695.957 355.177 691.456 358.495 688.137C361.814 684.819 366.315 682.954 371.008 682.954H371.009L379.314 676.653L394.809 682.955L398.778 682.955L398.777 701.227Z" fill="#2F2E41"/>
<path d="M327.089 413.002C327.089 413.002 240.951 496.169 295.406 521.912H312.237C312.237 521.912 317.295 503.943 328.874 488.789C330.465 486.708 336.422 487.131 338.076 485.103C348.178 472.72 359.129 462.085 366.692 462.507L371.642 519.932L369.2 536.763C367.662 547.359 368.067 558.146 370.394 568.597L368.672 635.772L398.874 635.789C398.874 635.789 400.094 620.046 401.115 600.355C401.388 595.08 403.657 591.404 403.874 585.789C404.396 572.328 402.668 556.66 402.335 545.674L425.107 424.883L327.089 413.002Z" fill="#2F2E41"/>
<path d="M366.874 236.789L352.829 255.578L319.166 275.378L338.966 326.862L339.717 365.168L337.874 369.789L339.956 377.357C339.956 377.357 338.996 386.213 333.874 392.789C324.921 404.286 311.249 416.781 325.105 419.931C346.887 424.882 424.114 435.772 428.074 426.862C429.444 423.78 429.274 410.746 428.465 395.014C428.314 392.072 425.064 388.872 424.874 385.789C424.732 383.476 427.656 381.3 427.497 378.954C425.731 352.809 423.124 325.873 423.124 325.873L430.874 253.789L399.874 245.789L396.394 236.917L366.874 236.789Z" fill="#3348F2"/>
<path d="M291.27 516.971L295.874 522.789C295.874 522.789 338.219 552.414 339.673 555.182L346.365 561.515L362.557 544.206L354.137 533.652C347.398 525.206 338.692 518.54 328.78 514.239L315.874 502.789L291.27 516.971Z" fill="#2F2E41"/>
<path d="M318.176 433.824L325.888 359.185L327.923 328.466L306.34 324.563C306.34 324.563 303.108 345.681 300.28 358.074C297.49 370.303 303.997 432.186 304.17 433.818C302.585 435.235 301.467 437.1 300.965 439.166C300.463 441.233 300.601 443.403 301.359 445.389C302.117 447.376 303.46 449.085 305.211 450.292C306.962 451.498 309.038 452.145 311.164 452.146C313.291 452.147 315.367 451.503 317.119 450.298C318.871 449.093 320.216 447.384 320.976 445.399C321.736 443.413 321.876 441.243 321.376 439.176C320.876 437.109 319.76 435.243 318.176 433.824Z" fill="#FFB9B9"/>
<path d="M290.29 371.724L327.549 381.182L327.29 370.724L330.118 367.724L335.768 338.127L343.874 320.789L341.767 261.5L321.179 272.42L321.154 272.439C317.558 276.394 314.551 280.846 312.226 285.659C304.464 301.437 297.008 336.192 293.105 356.378C292.971 356.801 292.712 357.174 292.363 357.448C290.427 359.225 289.163 361.616 288.786 364.217C288.408 366.818 288.94 369.47 290.29 371.724Z" fill="#3348F2"/>
<path d="M511.551 390.78C511.551 390.78 466.193 342.959 465.77 342.058C462.601 317.997 453.488 307.383 452.122 308.536L428.601 316.684C428.601 316.684 435.597 338.839 440.334 351.998C444.861 364.573 497.027 395.286 497.897 396.803C496.963 398.866 496.677 401.165 497.077 403.395C497.477 405.625 498.545 407.681 500.139 409.291C501.733 410.9 503.778 411.988 506.004 412.411C508.23 412.833 510.531 412.569 512.604 411.655C514.677 410.741 516.423 409.219 517.612 407.29C518.801 405.362 519.377 403.118 519.263 400.855C519.149 398.592 518.35 396.418 516.973 394.619C515.596 392.82 513.706 391.481 511.551 390.78Z" fill="#FFB9B9"/>
<path d="M409.608 255.435C409.608 255.435 432.697 244.119 441.652 266.344C446.562 278.891 459.118 309.342 465.375 328.087C465.417 328.206 465.474 328.32 465.546 328.423C467.219 330.91 468.123 333.835 468.142 336.833C468.14 337.051 468.163 337.269 468.21 337.482C468.21 337.482 442.837 342.425 435.29 355.724L432.297 352.476L431.765 350.2L409.874 291.79L409.608 255.435Z" fill="#3348F2"/>
<path d="M786.671 346.143H516.349C513.94 346.14 511.631 345.182 509.928 343.479C508.225 341.776 507.267 339.466 507.264 337.058V297.467C507.267 295.058 508.225 292.749 509.928 291.046C511.631 289.343 513.94 288.385 516.349 288.382H786.671C789.08 288.385 791.389 289.343 793.092 291.046C794.795 292.749 795.754 295.058 795.756 297.467V337.058C795.754 339.466 794.795 341.776 793.092 343.479C791.389 345.182 789.08 346.14 786.671 346.143Z" fill="#E6E6E6"/>
<path d="M760.406 340.015H522.478C520.07 340.012 517.76 339.054 516.057 337.351C514.354 335.648 513.396 333.338 513.393 330.93V303.6C513.396 301.191 514.354 298.882 516.057 297.179C517.76 295.475 520.07 294.517 522.478 294.515H780.543C782.952 294.517 785.261 295.475 786.964 297.179C788.667 298.882 789.626 301.191 789.628 303.6V310.793C789.62 318.54 786.538 325.968 781.06 331.446C775.581 336.924 768.154 340.006 760.406 340.015Z" fill="white"/>
<path d="M678.335 314.446H569.686C569.065 314.446 568.469 314.199 568.029 313.76C567.59 313.32 567.343 312.724 567.343 312.103C567.343 311.481 567.59 310.885 568.029 310.446C568.469 310.007 569.065 309.76 569.686 309.76H678.335C678.956 309.76 679.552 310.007 679.992 310.446C680.431 310.885 680.678 311.481 680.678 312.103C680.678 312.724 680.431 313.32 679.992 313.76C679.552 314.199 678.956 314.446 678.335 314.446Z" fill="#3348F2"/>
<path d="M733.335 324.029H569.686C569.065 324.029 568.469 323.782 568.029 323.343C567.59 322.903 567.343 322.307 567.343 321.686C567.343 321.064 567.59 320.468 568.029 320.029C568.469 319.59 569.065 319.343 569.686 319.343H733.335C733.956 319.343 734.552 319.59 734.992 320.029C735.431 320.468 735.678 321.064 735.678 321.686C735.678 322.307 735.431 322.903 734.992 323.343C734.552 323.782 733.956 324.029 733.335 324.029Z" fill="#E6E6E6"/>
<path d="M786.671 430.143H516.349C513.94 430.14 511.631 429.182 509.928 427.479C508.225 425.775 507.267 423.466 507.264 421.058V381.467C507.267 379.058 508.225 376.749 509.928 375.046C511.631 373.343 513.94 372.385 516.349 372.382H786.671C789.08 372.385 791.389 373.343 793.092 375.046C794.795 376.749 795.754 379.058 795.756 381.467V421.058C795.754 423.466 794.795 425.775 793.092 427.479C791.389 429.182 789.08 430.14 786.671 430.143Z" fill="#E6E6E6"/>
<path d="M760.406 424.015H522.478C520.07 424.012 517.76 423.054 516.057 421.351C514.354 419.648 513.396 417.338 513.393 414.93V387.6C513.396 385.191 514.354 382.882 516.057 381.179C517.76 379.475 520.07 378.517 522.478 378.515H780.543C782.952 378.517 785.261 379.475 786.964 381.179C788.667 382.882 789.626 385.191 789.628 387.6V394.793C789.62 402.54 786.538 409.968 781.06 415.446C775.581 420.924 768.154 424.006 760.406 424.015Z" fill="white"/>
<path d="M678.335 398.446H569.686C569.378 398.446 569.074 398.385 568.789 398.267C568.505 398.15 568.247 397.977 568.029 397.76C567.812 397.542 567.639 397.284 567.521 396.999C567.403 396.715 567.343 396.41 567.343 396.103C567.343 395.795 567.403 395.49 567.521 395.206C567.639 394.922 567.812 394.664 568.029 394.446C568.247 394.228 568.505 394.056 568.789 393.938C569.074 393.82 569.378 393.76 569.686 393.76H678.335C678.956 393.76 679.552 394.007 679.992 394.446C680.431 394.885 680.678 395.481 680.678 396.103C680.678 396.724 680.431 397.32 679.992 397.76C679.552 398.199 678.956 398.446 678.335 398.446Z" fill="#3348F2"/>
<path d="M733.335 408.029H569.686C569.378 408.029 569.074 407.968 568.789 407.85C568.505 407.733 568.247 407.56 568.029 407.343C567.812 407.125 567.639 406.867 567.521 406.582C567.403 406.298 567.343 405.993 567.343 405.686C567.343 405.378 567.403 405.073 567.521 404.789C567.639 404.505 567.812 404.247 568.029 404.029C568.247 403.811 568.505 403.639 568.789 403.521C569.074 403.403 569.378 403.343 569.686 403.343H733.335C733.956 403.343 734.552 403.59 734.992 404.029C735.431 404.468 735.678 405.064 735.678 405.686C735.678 406.307 735.431 406.903 734.992 407.343C734.552 407.782 733.956 408.029 733.335 408.029Z" fill="#E6E6E6"/>
<path d="M786.671 514.143H516.349C513.94 514.14 511.631 513.182 509.928 511.479C508.225 509.775 507.267 507.466 507.264 505.058V465.467C507.267 463.058 508.225 460.749 509.928 459.046C511.631 457.343 513.94 456.385 516.349 456.382H786.671C789.08 456.385 791.389 457.343 793.092 459.046C794.795 460.749 795.754 463.058 795.756 465.467V505.058C795.754 507.466 794.795 509.775 793.092 511.479C791.389 513.182 789.08 514.14 786.671 514.143Z" fill="#E6E6E6"/>
<path d="M760.406 508.015H522.478C520.07 508.012 517.76 507.054 516.057 505.351C514.354 503.647 513.396 501.338 513.393 498.93V471.6C513.396 469.191 514.354 466.882 516.057 465.179C517.76 463.475 520.07 462.517 522.478 462.515H780.543C782.952 462.517 785.261 463.475 786.964 465.179C788.667 466.882 789.626 469.191 789.628 471.6V478.792C789.62 486.54 786.538 493.968 781.06 499.446C775.581 504.924 768.154 508.006 760.406 508.015Z" fill="white"/>
<path d="M678.335 482.446H569.686C569.065 482.446 568.469 482.199 568.029 481.76C567.59 481.32 567.343 480.724 567.343 480.103C567.343 479.481 567.59 478.885 568.029 478.446C568.469 478.007 569.065 477.76 569.686 477.76H678.335C678.956 477.76 679.552 478.007 679.992 478.446C680.431 478.885 680.678 479.481 680.678 480.103C680.678 480.724 680.431 481.32 679.992 481.76C679.552 482.199 678.956 482.446 678.335 482.446Z" fill="#3348F2"/>
<path d="M733.335 492.029H569.686C569.065 492.029 568.469 491.782 568.029 491.343C567.59 490.903 567.343 490.307 567.343 489.686C567.343 489.064 567.59 488.468 568.029 488.029C568.469 487.59 569.065 487.343 569.686 487.343H733.335C733.956 487.343 734.552 487.59 734.992 488.029C735.431 488.468 735.678 489.064 735.678 489.686C735.678 490.307 735.431 490.903 734.992 491.343C734.552 491.782 733.956 492.029 733.335 492.029Z" fill="#E6E6E6"/>
<path d="M381.674 230.758C397.288 230.758 409.946 218.1 409.946 202.486C409.946 186.872 397.288 174.214 381.674 174.214C366.06 174.214 353.402 186.872 353.402 202.486C353.402 218.1 366.06 230.758 381.674 230.758Z" fill="#FFB9B9"/>
<path d="M360.887 220.668C360.548 220.67 360.211 220.615 359.889 220.508C358.627 219.955 357.572 219.017 356.875 217.829C352.008 210.828 349.657 201.494 349.89 190.085C349.989 185.259 350.535 179.088 353.915 174.169C356.757 170.033 362.507 166.751 367.865 168.399C367.804 167.327 368.042 166.26 368.553 165.316C369.063 164.371 369.825 163.588 370.755 163.051C372.785 161.809 375.228 161.58 377.383 161.377C382.825 160.867 388.451 160.34 393.962 161.384C400.141 162.556 405.193 165.741 407.823 170.122L407.877 170.259L408.411 172.855C408.483 173.204 408.63 173.533 408.841 173.82C409.052 174.107 409.323 174.345 409.635 174.517C409.947 174.689 410.293 174.791 410.648 174.817C411.003 174.843 411.36 174.791 411.694 174.666C412.058 174.529 412.451 174.489 412.835 174.551C413.219 174.612 413.58 174.772 413.884 175.016C414.187 175.26 414.421 175.579 414.563 175.941C414.705 176.303 414.751 176.695 414.695 177.08L414.546 178.113L416.1 177.822C416.489 177.75 416.89 177.781 417.263 177.914C417.635 178.047 417.966 178.277 418.221 178.579C418.476 178.881 418.646 179.246 418.715 179.636C418.783 180.025 418.747 180.426 418.61 180.797L418.171 181.984C418.492 181.986 418.81 182.054 419.104 182.184C419.399 182.314 419.663 182.502 419.882 182.738C420.196 183.076 420.394 183.506 420.447 183.964C420.5 184.423 420.405 184.886 420.175 185.287C418.438 188.257 415.974 190.736 413.015 192.491C411.398 193.464 409.629 194.16 407.782 194.549C395.797 197.136 383.44 197.507 371.322 195.646C372.039 198.036 372.316 200.537 372.137 203.026C371.749 206.138 369.922 208.707 367.481 209.569C366.926 209.75 366.357 209.887 365.78 209.979C365.228 210.065 364.685 210.197 364.156 210.374C363.371 210.662 362.676 211.152 362.141 211.795C361.606 212.437 361.25 213.21 361.109 214.034C360.968 214.858 361.047 215.704 361.337 216.488C361.628 217.272 362.12 217.966 362.764 218.499L363.967 217.245L363.576 218.839C363.494 219.149 363.348 219.439 363.147 219.689C362.946 219.939 362.695 220.144 362.409 220.291C361.941 220.541 361.418 220.671 360.887 220.668Z" fill="#2F2E41"/>
<path d="M754.18 647.557L755.324 621.837C767.248 615.463 780.548 612.097 794.069 612.029C775.46 627.243 777.786 656.57 765.17 677.029C761.186 683.38 755.824 688.753 749.482 692.75C743.139 696.746 735.978 699.265 728.53 700.118L712.958 709.653C710.821 697.74 711.292 685.507 714.339 673.794C717.386 662.082 722.935 651.169 730.605 641.807C734.96 636.598 739.954 631.958 745.468 627.997C749.198 637.831 754.18 647.557 754.18 647.557Z" fill="#F2F2F2"/>
<path d="M865.67 710.282C865.67 710.438 865.64 710.593 865.58 710.738C865.521 710.882 865.433 711.014 865.322 711.124C865.212 711.235 865.081 711.323 864.936 711.382C864.791 711.442 864.636 711.472 864.48 711.472H1.19C0.874395 711.472 0.571725 711.346 0.348557 711.123C0.125388 710.9 0 710.597 0 710.282C0 709.966 0.125388 709.663 0.348557 709.44C0.571725 709.217 0.874395 709.092 1.19 709.092H864.48C864.636 709.091 864.791 709.122 864.936 709.181C865.081 709.241 865.212 709.329 865.322 709.439C865.433 709.55 865.521 709.681 865.58 709.826C865.64 709.97 865.67 710.125 865.67 710.282Z" fill="#CCCCCC"/>
</g>
<defs>
<clipPath id="clip0_25_514">
<rect width="865.67" height="711.472" fill="white"/>
</clipPath>
</defs>
</svg>
