<svg width="72" height="65" viewBox="0 0 72 65" fill="none" xmlns="http://www.w3.org/2000/svg">
<g clip-path="url(#clip0_368_130)">
<path fill-rule="evenodd" clip-rule="evenodd" d="M34.2694 0C31.5146 0.473791 28.9297 2.0914 27.3354 4.85281L1.35466 49.8528C-2.49434 56.5195 2.31692 64.8528 10.0149 64.8528L71.9223 62.5V56L12.384 58.1028C9.35676 58.1028 7.42667 54.8703 8.86271 52.2053L32.4744 8.38753C32.9065 7.58565 33.544 7.01315 34.2694 6.67001V0ZM61.5 56.3685C64.5273 56.3685 64.5647 54.8703 63.1286 52.2053L39.517 8.38752C39.1976 7.79476 38.7659 7.32734 38.2694 6.98526L41 5.5C43.547 6.08437 45.0118 5.80988 46.5 8.38752L70.6367 49.8528C76 58 72 53 71.9223 56L61.5 56.3685Z" fill="black"/>
<path d="M37.011 8.19911C38.4343 5.44725 41.6547 5.12973 44.5001 6.50109L44.5001 7.5C43.1843 8.72104 46.3041 7.4494 45.9484 8.13736L21.6407 55.1349C21.2849 55.8229 21.7115 56.3429 21.0001 56L19.1439 55.1886C16.2986 53.8171 15.1457 50.4746 16.5689 47.7228L37.011 8.19911Z" fill="black"/>
<path d="M32.0208 38.1295C29.8117 38.141 28.0115 36.3595 28 34.1504C27.9971 33.5982 28.4424 33.1481 28.9947 33.1452L56.751 33C57.3033 32.9971 57.7534 33.4425 57.7562 33.9948C57.7678 36.2039 55.9863 38.0041 53.7772 38.0156L32.0208 38.1295Z" fill="black"/>
</g>
<defs>
<clipPath id="clip0_368_130">
<rect width="72" height="65" fill="white"/>
</clipPath>
</defs>
</svg>
