<svg width="474" height="215" viewBox="0 0 474 215" fill="none" xmlns="http://www.w3.org/2000/svg">
<g clip-path="url(#clip0_2_35)">
<path d="M57.0174 185.369L57.4872 195.304L57.4873 195.304C57.5665 196.983 56.9777 198.625 55.8502 199.868C54.7227 201.112 53.149 201.855 51.4752 201.935L51.2701 201.945L50.5008 185.68L57.0174 185.369Z" fill="#2F2E41"/>
<path d="M197.822 168.581C193.105 177.815 187.122 186.745 179.552 194.827C179.384 195.009 179.214 195.187 179.043 195.368L161.108 186.851C161.218 186.668 161.338 186.463 161.467 186.239C169.172 173.016 215.678 92.3588 214.209 74.0909C214.38 75.5975 219.892 125.424 197.822 168.581Z" fill="#E6E6E6"/>
<path d="M183.013 196.47C182.761 196.613 182.504 196.753 182.245 196.888L168.79 190.499C168.979 190.365 169.198 190.207 169.45 190.029C173.572 187.061 185.829 178.154 197.822 168.581C210.711 158.295 223.297 147.242 225.167 141.966C224.787 143.176 212.99 179.951 183.013 196.47Z" fill="#E6E6E6"/>
<path d="M22.381 201.548C33.8487 201.548 43.145 192.223 43.145 180.72C43.145 169.217 33.8487 159.892 22.381 159.892C10.9133 159.892 1.61694 169.217 1.61694 180.72C1.61694 192.223 10.9133 201.548 22.381 201.548Z" fill="#6C63FF"/>
<path d="M30.6984 171.98H14.0636C13.3286 171.98 12.6238 172.274 12.1041 172.795C11.5843 173.316 11.292 174.023 11.2911 174.761V186.679C11.292 187.416 11.5843 188.123 12.1041 188.645C12.6238 189.166 13.3285 189.459 14.0636 189.46H30.6984C31.4334 189.459 32.1382 189.166 32.6579 188.645C33.1777 188.123 33.4701 187.416 33.4709 186.679V174.761C33.47 174.023 33.1777 173.316 32.6579 172.795C32.1381 172.274 31.4334 171.98 30.6984 171.98ZM30.6984 173.569C30.7977 173.569 30.8966 173.582 30.9926 173.607L22.3829 180.496L13.8235 173.593C13.9025 173.577 13.9829 173.569 14.0636 173.569H30.6984ZM30.6984 187.871H14.0636C13.7486 187.871 13.4466 187.745 13.2238 187.522C13.0011 187.298 12.8758 186.995 12.8754 186.679V174.868L21.8847 182.134C22.025 182.247 22.1995 182.309 22.3795 182.309C22.5595 182.309 22.7343 182.248 22.875 182.136L31.8866 174.925V186.679C31.8862 186.995 31.7609 187.298 31.5382 187.522C31.3154 187.745 31.0134 187.871 30.6984 187.871Z" fill="white"/>
<path d="M102.514 150.65L107.16 150.688C107.63 150.692 108.096 150.593 108.524 150.398C108.952 150.203 109.332 149.916 109.639 149.559C109.945 149.201 110.17 148.781 110.298 148.327C110.425 147.873 110.453 147.397 110.378 146.931C110.298 146.43 110.101 145.955 109.805 145.544C109.508 145.133 109.119 144.797 108.669 144.565C108.22 144.332 107.722 144.208 107.216 144.203C106.71 144.199 106.21 144.314 105.756 144.538L101.375 146.707L86.3896 150.059L79.9695 143.475L76.2818 149.567L84.9451 156.281L102.514 150.65Z" fill="#FFB8B8"/>
<path d="M101.643 198.798L96.1697 199.854C92.4308 188.032 88.3798 176.837 88.3801 168.177C83.0888 174.085 76.5273 177.464 68.8007 178.525L69.6428 165.432L75.9587 162.053L85.6252 157.578C86.4715 157.186 87.3845 156.96 88.3154 156.911C90.1251 156.815 91.906 157.394 93.3154 158.537C94.7248 159.68 95.6629 161.305 95.9492 163.1L101.643 198.798Z" fill="#2F2E41"/>
<path d="M75.4324 176.941L73.2508 178.605C72.3127 179.32 71.2044 179.776 70.036 179.929C68.8676 180.082 67.6797 179.926 66.5902 179.476C60.3414 174.777 55.902 176.163 51.8784 183.255C47.0523 177.791 45.8617 169.9 50.1688 161.737L74.064 162.264L78.9062 160.786L75.4324 176.941Z" fill="#2F2E41"/>
<path d="M67.4745 201.409C66.1053 201.831 64.6315 201.757 63.3113 201.199C61.9911 200.641 60.9088 199.635 60.2539 198.357C58.1064 196.46 56.2945 193.744 54.723 190.44C53.5954 188.017 52.6272 185.523 51.8246 182.973C50.7371 179.604 52.5554 175.923 55.9397 174.915C56.0403 174.885 56.1422 174.857 56.2453 174.831C60.7631 173.667 65.4025 176.281 66.9468 180.696L71.4373 193.533C71.7026 194.292 71.8164 195.095 71.7721 195.897C71.7279 196.7 71.5265 197.486 71.1795 198.21C70.8325 198.934 70.3466 199.583 69.7496 200.119C69.1527 200.655 68.4563 201.068 67.7002 201.334C67.6255 201.361 67.5502 201.385 67.4745 201.409Z" fill="#2F2E41"/>
<path opacity="0.2" d="M53.9583 188.979C53.9583 188.979 59.2216 194.892 60.2742 198.27Z" fill="black"/>
<path d="M33.5453 161.073L31.7838 165.385C31.6056 165.822 31.5244 166.292 31.5459 166.763C31.5674 167.234 31.6911 167.695 31.9083 168.113C32.1255 168.531 32.4311 168.897 32.8037 169.184C33.1763 169.472 33.6069 169.674 34.0656 169.778C34.5592 169.889 35.072 169.883 35.5627 169.759C36.0534 169.636 36.5083 169.398 36.8908 169.066C37.2733 168.734 37.5727 168.316 37.765 167.846C37.9572 167.377 38.0368 166.869 37.9975 166.363L37.618 161.477L40.0826 146.276L48.5617 142.743L44.2928 137.045L34.86 142.619L33.5453 161.073Z" fill="#FFB8B8"/>
<path d="M75.643 161.737C69.5939 171.928 57.535 175.875 47.2065 167.894C49.0234 161.906 54.8893 145.357 51.0998 144.723C43.0537 148.108 43.042 140.161 41.537 136.184L59.8532 129.426L69.7481 132.171L71.7765 132.893C73.0965 133.363 74.2414 134.227 75.0573 135.369C75.8731 136.511 76.3208 137.877 76.3399 139.282C72.1835 145.305 69.1065 151.73 75.643 161.737Z" fill="#6C63FF"/>
<path d="M77.9588 153.501L70.6955 147.482L73.1166 133.439L83.0115 143.997L77.9588 153.501Z" fill="#6C63FF"/>
<path d="M198.479 57.0262H197.441V28.5062C197.441 24.1285 195.708 19.9301 192.622 16.8345C189.536 13.739 185.35 12 180.986 12H120.747C116.383 12 112.198 13.739 109.112 16.8345C106.026 19.9301 104.292 24.1285 104.292 28.5062V184.97C104.292 189.347 106.026 193.546 109.112 196.641C112.198 199.737 116.383 201.476 120.747 201.476H180.985C185.35 201.476 189.535 199.737 192.621 196.641C195.707 193.546 197.441 189.347 197.441 184.97V77.3272H198.479L198.479 57.0262Z" fill="#3F3D56"/>
<path d="M181.65 16.294H173.787C174.148 17.1833 174.287 18.1482 174.189 19.1037C174.091 20.0592 173.761 20.976 173.227 21.7732C172.693 22.5705 171.971 23.2237 171.126 23.6754C170.281 24.127 169.338 24.3632 168.381 24.3632H133.871C132.914 24.3632 131.971 24.1269 131.126 23.6753C130.281 23.2236 129.56 22.5705 129.026 21.7733C128.492 20.9762 128.161 20.0596 128.063 19.1042C127.966 18.1488 128.104 17.184 128.465 16.2947H121.12C117.861 16.2947 114.735 17.5935 112.43 19.9052C110.126 22.217 108.831 25.3524 108.831 28.6218V184.855C108.831 188.124 110.126 191.26 112.43 193.571C114.735 195.883 117.861 197.182 121.12 197.182H181.647C184.907 197.182 188.032 195.883 190.337 193.571C192.642 191.26 193.937 188.124 193.937 184.855V28.621C193.937 25.3517 192.642 22.2162 190.337 19.9045C188.032 17.5927 184.907 16.2939 181.647 16.2939L181.65 16.294Z" fill="white"/>
<path d="M151.489 188.451C155.216 188.451 158.237 185.42 158.237 181.682C158.237 177.943 155.216 174.913 151.489 174.913C147.762 174.913 144.741 177.943 144.741 181.682C144.741 185.42 147.762 188.451 151.489 188.451Z" fill="#E6E6E6"/>
<path d="M124.112 119.081C123.475 119.081 122.955 119.676 122.955 120.406C122.955 121.136 123.475 121.731 124.112 121.731H178.655C179.293 121.731 179.812 121.136 179.812 120.406C179.812 119.676 179.293 119.081 178.655 119.081H124.112Z" fill="#E6E6E6"/>
<path d="M124.112 150.323C123.475 150.323 122.955 150.918 122.955 151.648C122.955 152.378 123.475 152.973 124.112 152.973H178.655C179.293 152.973 179.812 152.378 179.812 151.648C179.812 150.918 179.293 150.323 178.655 150.323H124.112Z" fill="#E6E6E6"/>
<path d="M124.112 127.029C123.475 127.029 122.955 127.624 122.955 128.354C122.955 129.084 123.475 129.678 124.112 129.678H147.582C148.22 129.678 148.739 129.084 148.739 128.354C148.739 127.624 148.22 127.029 147.582 127.029H124.112Z" fill="#E6E6E6"/>
<path d="M124.112 134.605C123.475 134.605 122.955 135.199 122.955 135.93C122.955 136.66 123.475 137.254 124.112 137.254H178.655C179.293 137.254 179.812 136.66 179.812 135.93C179.812 135.199 179.293 134.605 178.655 134.605H124.112Z" fill="#E6E6E6"/>
<path d="M124.112 142.553C123.475 142.553 122.955 143.147 122.955 143.877C122.955 144.608 123.475 145.202 124.112 145.202H147.582C148.22 145.202 148.739 144.608 148.739 143.877C148.739 143.147 148.22 142.553 147.582 142.553H124.112Z" fill="#E6E6E6"/>
<path d="M134.409 58.7659H168.362C168.737 58.7663 169.096 58.916 169.362 59.182C169.627 59.4481 169.776 59.8087 169.777 60.1849V95.6542C169.776 96.0304 169.627 96.3911 169.362 96.6571C169.096 96.9232 168.737 97.0728 168.362 97.0732H134.409C134.034 97.0728 133.674 96.9232 133.409 96.6571C133.144 96.3911 132.995 96.0304 132.994 95.6542V60.1849C132.995 59.8087 133.144 59.448 133.409 59.182C133.674 58.916 134.034 58.7663 134.409 58.7659Z" fill="#6C63FF"/>
<path d="M161.127 89.7589C161.253 89.7591 161.378 89.7344 161.495 89.6861C161.612 89.6379 161.718 89.567 161.807 89.4775C161.897 89.3881 161.968 89.2819 162.016 89.1649C162.065 89.0479 162.09 88.9226 162.09 88.7959C162.09 88.6693 162.065 88.5439 162.017 88.4268C161.968 88.3098 161.897 88.2035 161.808 88.114C161.719 88.0245 161.613 87.9535 161.496 87.9051C161.379 87.8567 161.254 87.8319 161.128 87.832H141.644C141.517 87.8318 141.392 87.8565 141.276 87.9048C141.159 87.953 141.053 88.0239 140.964 88.1133C140.874 88.2028 140.803 88.309 140.755 88.426C140.706 88.5429 140.681 88.6683 140.681 88.795C140.681 88.9216 140.706 89.047 140.754 89.164C140.803 89.281 140.874 89.3873 140.963 89.4769C141.052 89.5664 141.158 89.6374 141.275 89.6858C141.392 89.7342 141.517 89.759 141.643 89.7589H161.127Z" fill="white"/>
<path d="M161.127 84.0826C161.382 84.0826 161.626 83.9811 161.806 83.8005C161.986 83.6198 162.088 83.3747 162.088 83.1192C162.088 82.8637 161.986 82.6187 161.806 82.438C161.626 82.2573 161.382 82.1558 161.127 82.1558H141.644C141.389 82.1557 141.145 82.2571 140.964 82.4377C140.784 82.6183 140.683 82.8633 140.683 83.1188C140.683 83.3743 140.784 83.6194 140.964 83.8001C141.144 83.9809 141.388 84.0825 141.643 84.0826H161.127Z" fill="white"/>
<path d="M151.385 66.0803C152.581 66.0803 153.75 66.4359 154.744 67.1023C155.738 67.7686 156.513 68.7157 156.971 69.8238C157.428 70.9319 157.548 72.1512 157.315 73.3276C157.082 74.5039 156.506 75.5845 155.66 76.4326C154.815 77.2806 153.738 77.8582 152.565 78.0922C151.392 78.3262 150.177 78.2061 149.072 77.7471C147.967 77.2881 147.023 76.5109 146.359 75.5136C145.694 74.5163 145.34 73.3439 145.34 72.1445C145.342 70.5367 145.979 68.9953 147.113 67.8585C148.246 66.7216 149.783 66.0821 151.385 66.0803Z" fill="white"/>
<path d="M74.2481 127.588H56.3002C55.931 127.587 55.5771 127.44 55.316 127.178C55.055 126.916 54.9081 126.561 54.9077 126.191V118.431C54.9077 115.673 55.9999 113.028 57.944 111.078C59.8881 109.128 62.5248 108.032 65.2742 108.032C68.0235 108.032 70.6603 109.128 72.6044 111.078C74.5484 113.028 75.6406 115.673 75.6406 118.431V126.191C75.6402 126.561 75.4934 126.916 75.2323 127.178C74.9712 127.44 74.6173 127.587 74.2481 127.588Z" fill="#2F2E41"/>
<path d="M73.9246 123.153C75.938 119.459 74.5844 114.827 70.9013 112.807C67.2181 110.787 62.6002 112.145 60.5868 115.84C58.5734 119.534 59.927 124.166 63.6102 126.186C67.2933 128.205 71.9113 126.848 73.9246 123.153Z" fill="#FFB6B6"/>
<path d="M78.0931 119.207H67.1184L67.0058 117.626L66.4431 119.207H64.7532L64.5302 116.074L63.415 119.207H60.1452V119.052C60.1476 116.871 61.0123 114.78 62.5497 113.238C64.087 111.696 66.1713 110.828 68.3454 110.826H69.8927C72.0668 110.828 74.1512 111.696 75.6885 113.238C77.2259 114.78 78.0906 116.871 78.0931 119.052V119.207Z" fill="#2F2E41"/>
<path d="M67.0285 129.036C66.9459 129.036 66.8635 129.029 66.7821 129.014L58.7459 127.592V114.27H67.5922L67.3732 114.526C64.326 118.091 66.6217 123.871 68.2613 126.999C68.3822 127.228 68.4361 127.487 68.4168 127.745C68.3975 128.004 68.3058 128.252 68.1523 128.46C68.0238 128.638 67.8549 128.784 67.6595 128.884C67.4642 128.984 67.2479 129.036 67.0285 129.036Z" fill="#2F2E41"/>
<path d="M93.7841 194.811L103.699 194.811H103.699C105.375 194.811 106.982 195.479 108.167 196.667C109.352 197.856 110.018 199.468 110.018 201.149V201.355L93.7844 201.355L93.7841 194.811Z" fill="#2F2E41"/>
<path d="M230.74 202H0.259551C0.190713 202 0.124696 201.973 0.0760204 201.924C0.0273452 201.875 0 201.809 0 201.74C0 201.671 0.0273452 201.604 0.0760204 201.556C0.124696 201.507 0.190713 201.479 0.259551 201.479H230.74C230.809 201.479 230.875 201.507 230.924 201.556C230.973 201.604 231 201.671 231 201.74C231 201.809 230.973 201.875 230.924 201.924C230.875 201.973 230.809 202 230.74 202Z" fill="#CACACA"/>
</g>
<g clip-path="url(#clip1_2_35)">
<path d="M240.822 73.2654L229.009 66.5938C228.849 59.4559 230.43 52.3868 233.614 46.0005C236.337 58.3955 250.671 64.2927 257.284 75.1152C259.321 78.5064 260.57 82.3138 260.94 86.2552C261.31 90.1965 260.791 94.1708 259.42 97.8834L260.197 107.494C254.092 105.66 248.455 102.521 243.676 98.2929C238.897 94.0648 235.089 88.848 232.514 83.002C231.102 79.7081 230.109 76.249 229.559 72.7063C235.067 73.294 240.822 73.2654 240.822 73.2654Z" fill="#F2F2F2"/>
<path d="M453.185 194.64L453.548 186.473C457.324 184.449 461.536 183.38 465.817 183.359C459.924 188.19 460.661 197.502 456.666 203.998C455.404 206.015 453.706 207.721 451.697 208.99C449.689 210.26 447.421 211.059 445.062 211.33L440.131 214.358C439.454 210.575 439.603 206.69 440.568 202.971C441.533 199.252 443.29 195.787 445.719 192.814C447.099 191.16 448.68 189.687 450.426 188.429C451.607 191.552 453.185 194.64 453.185 194.64Z" fill="#F2F2F2"/>
<path d="M440.479 210.155L436.013 210.154L433.889 192.884L440.48 192.885L440.479 210.155Z" fill="#FFB6B6"/>
<path d="M441.618 214.495L427.219 214.494V214.312C427.219 212.821 427.81 211.392 428.861 210.338C429.912 209.285 431.337 208.693 432.823 208.693L435.454 206.692L440.361 208.693L441.618 208.693L441.618 214.495Z" fill="#2F2E41"/>
<path d="M419.733 210.155L415.268 210.154L413.144 192.884L419.734 192.885L419.733 210.155Z" fill="#FFB6B6"/>
<path d="M420.872 214.495L406.474 214.494V214.312C406.474 212.821 407.064 211.392 408.115 210.338C409.166 209.285 410.592 208.693 412.078 208.693L414.709 206.692L419.616 208.693L420.872 208.693L420.872 214.495Z" fill="#2F2E41"/>
<path d="M417.801 115.738L446.845 116.467C452.362 119.471 452.445 125.973 450.638 133.693C450.638 133.693 451.248 138.281 450.028 139.505C448.807 140.729 448.197 140.729 448.808 142.87C449.418 145.011 446.194 148.509 446.585 148.901C446.977 149.294 447.892 151.435 447.892 151.435L444.841 168.871C444.841 168.871 442.706 199.155 442.096 199.767C441.486 200.379 440.875 199.767 441.486 201.297C442.096 202.826 442.706 202.214 442.096 202.826C441.555 203.411 441.046 204.023 440.57 204.662H433.194C433.194 204.662 432.638 201.603 432.638 201.297C432.638 200.991 432.028 199.155 432.028 198.85C432.028 198.544 432.567 198.003 432.567 198.003C432.754 197.381 432.88 196.743 432.943 196.096C432.943 195.485 434.774 171.93 434.774 171.93L431.113 141.34L422.266 171.319C422.266 171.319 422.266 197.626 421.655 198.238C421.045 198.85 421.045 198.544 421.35 199.767C421.655 200.991 422.876 200.685 421.961 201.603C421.045 202.52 420.74 200.991 421.045 202.52L421.35 204.05L412.198 204.181C412.198 204.181 410.978 201.603 411.588 200.685C412.198 199.767 412.161 200.018 411.417 198.516C410.673 197.014 410.367 196.708 410.673 196.402C410.978 196.096 410.978 194.469 410.978 194.469L412.503 165.201C412.503 165.201 412.808 134.305 412.808 133.387C412.831 132.915 412.744 132.444 412.555 132.011V130.765L413.723 126.351L417.801 115.738Z" fill="#2F2E41"/>
<path d="M435.248 55.1818C440.232 55.1818 444.273 51.1306 444.273 46.1331C444.273 41.1357 440.232 37.0844 435.248 37.0844C430.264 37.0844 426.224 41.1357 426.224 46.1331C426.224 51.1306 430.264 55.1818 435.248 55.1818Z" fill="#FFB6B6"/>
<path d="M430.736 61.1623C428.792 62.3213 427.629 64.4507 426.961 66.6175C425.725 70.6292 424.981 74.7768 424.746 78.9689L424.04 91.5192L415.307 118.242C422.876 124.664 451.326 119.702 451.326 119.702C451.326 119.702 452.2 119.41 451.326 118.534C450.453 117.659 449.603 118.434 450.476 117.559C451.349 116.683 450.747 117.659 450.456 116.783C450.165 115.907 450.456 116.491 450.747 116.199C451.038 115.907 448.494 113.28 448.494 113.28L450.823 97.9408L453.734 67.0002C450.24 62.6218 443.215 60.0407 443.215 60.0407L441.399 56.7644L432.323 57.4925L430.736 61.1623Z" fill="#E6E6E6"/>
<path d="M429.498 40.8227C429.847 40.8254 430.195 40.8711 430.533 40.9588C431.199 41.1195 431.876 41.2333 432.559 41.2994C434.648 41.4965 436.611 42.3898 438.134 43.8368C439.658 45.2838 440.653 47.2009 440.963 49.2819C441.487 48.8235 442.68 47.9802 443.658 48.7639C443.673 48.7764 443.682 48.7828 443.716 48.7664C444.366 48.4575 445.519 44.6547 445.554 41.3063C445.572 39.5292 445.293 37.2598 443.86 36.5411L443.784 36.5033L443.764 36.421C443.669 36.0212 442.599 35.3388 440.739 34.8077C437.359 33.8425 432.322 31.9623 429.485 34.7294C429.27 35.6622 428.572 37.6585 427.866 37.8848C427.085 38.1352 426.41 38.3514 426.304 39.3123C426.215 40.6798 426.222 42.0518 426.323 43.4184C426.588 42.5822 427.108 41.8503 427.809 41.3257C428.308 40.9891 428.897 40.8135 429.498 40.8227Z" fill="#2F2E41"/>
<path d="M412.701 90.8206L427.443 81.3544L420.018 71.4579L412.686 80.5006L389.843 81.9054C389.242 81.3099 388.481 80.9025 387.654 80.733C386.826 80.5634 385.967 80.639 385.181 80.9506C384.396 81.2621 383.717 81.7961 383.229 82.4875C382.741 83.1788 382.464 83.9977 382.432 84.8442C382.4 85.6907 382.614 86.5282 383.049 87.2547C383.483 87.9812 384.119 88.5653 384.879 88.9357C385.639 89.3061 386.49 89.4468 387.328 89.3407C388.166 89.2346 388.955 88.8863 389.599 88.3382L412.701 90.8206Z" fill="#FFB6B6"/>
<path d="M441.125 68.1414C441.98 73.3332 425.823 83.2473 425.823 83.2473C425.823 82.0287 416.18 91.2283 415.744 90.2176C414.507 87.3453 413.638 80.5419 411.909 79.453C410.92 78.8303 417.863 72.9801 417.863 72.9801C417.863 72.9801 421.497 69.3092 426.266 64.679C427.59 63.3448 429.229 62.3683 431.031 61.8402C432.832 61.3122 434.738 61.2498 436.57 61.6588C436.57 61.6588 440.269 62.9497 441.125 68.1414Z" fill="#E6E6E6"/>
<path d="M471.509 93.3053L461.758 78.728L452.048 86.3806L461.219 93.5387L463.104 116.409C462.523 117.024 462.133 117.795 461.981 118.628C461.83 119.461 461.923 120.321 462.25 121.102C462.578 121.883 463.125 122.552 463.824 123.026C464.524 123.501 465.346 123.761 466.191 123.776C467.036 123.79 467.866 123.557 468.581 123.106C469.297 122.655 469.866 122.006 470.219 121.236C470.572 120.467 470.694 119.611 470.571 118.773C470.447 117.935 470.083 117.151 469.523 116.517L471.509 93.3053Z" fill="#FFB6B6"/>
<path d="M448.294 65.292C453.453 64.3244 463.68 80.3113 463.68 80.3113C462.465 80.3374 471.842 89.8096 470.843 90.2674C468.006 91.5684 461.24 92.5844 460.191 94.3403C459.591 95.3445 453.611 88.5088 453.611 88.5088C453.611 88.5088 449.874 84.9435 445.156 80.2608C443.798 78.9618 442.79 77.3393 442.225 75.5443C441.66 73.7494 441.558 71.8404 441.927 69.995C441.927 69.995 443.135 66.2596 448.294 65.292Z" fill="#E6E6E6"/>
<path d="M474 214.567C474 214.624 473.989 214.68 473.967 214.733C473.946 214.785 473.914 214.833 473.874 214.873C473.834 214.914 473.786 214.946 473.733 214.967C473.681 214.989 473.625 215 473.568 215H371.806C371.691 215 371.581 214.954 371.5 214.873C371.419 214.792 371.374 214.682 371.374 214.567C371.374 214.452 371.419 214.342 371.5 214.26C371.581 214.179 371.691 214.134 371.806 214.134H473.568C473.625 214.133 473.681 214.144 473.733 214.166C473.786 214.188 473.834 214.22 473.874 214.26C473.914 214.3 473.946 214.348 473.967 214.401C473.989 214.453 474 214.51 474 214.567Z" fill="#CCCCCC"/>
<path d="M379.729 83.2889H256.227C254.297 83.2911 252.447 84.0606 251.083 85.4287C249.718 86.7967 248.951 88.6516 248.949 90.5863V167.685C248.951 169.62 249.718 171.475 251.083 172.843C252.447 174.211 254.297 174.98 256.227 174.983H379.729C381.658 174.98 383.508 174.211 384.873 172.843C386.237 171.475 387.005 169.62 387.007 167.685V90.5863C387.005 88.6516 386.237 86.7967 384.873 85.4286C383.508 84.0606 381.658 83.291 379.729 83.2889Z" fill="#6C63FF"/>
<path d="M379.729 83.2889H256.227C254.297 83.2911 252.447 84.0606 251.083 85.4287C249.718 86.7967 248.951 88.6516 248.949 90.5863V167.685C248.951 169.62 249.718 171.475 251.083 172.843C252.447 174.211 254.297 174.98 256.227 174.983H379.729C381.658 174.98 383.508 174.211 384.873 172.843C386.237 171.475 387.005 169.62 387.007 167.685V90.5863C387.005 88.6516 386.237 86.7967 384.873 85.4286C383.508 84.0606 381.658 83.291 379.729 83.2889ZM382.117 138.67C382.088 146.519 378.991 154.044 373.492 159.63C367.993 165.217 360.53 168.419 352.703 168.551C340.171 168.715 359.636 168.779 344.522 168.779C309.962 168.779 273.924 168.448 260.478 168.233C258.709 168.196 257.025 167.468 255.784 166.203C254.543 164.938 253.845 163.237 253.838 161.462V90.592C253.839 89.9567 254.091 89.3475 254.538 88.8977C254.985 88.4479 255.592 88.1941 256.226 88.1918H379.724C380.357 88.1925 380.965 88.4448 381.413 88.8934C381.862 89.342 382.115 89.9504 382.117 90.5856V138.67Z" fill="#3F3D56"/>
<path d="M364.526 38.8929H270.43C269.598 38.8941 268.786 39.153 268.105 39.634C267.425 40.1151 266.909 40.795 266.629 41.5809L252.096 82.4623C251.879 83.0725 251.812 83.7259 251.899 84.3678C251.986 85.0096 252.226 85.6211 252.598 86.1508C252.97 86.6804 253.463 87.1128 254.036 87.4116C254.61 87.7104 255.246 87.8668 255.892 87.8677L382.09 88.0923H382.096C382.763 88.0923 383.421 87.9261 384.009 87.6086C384.597 87.2911 385.097 86.8323 385.465 86.2732C385.832 85.7141 386.056 85.0723 386.115 84.4053C386.175 83.7383 386.068 83.067 385.805 82.4515L368.236 41.3456C367.925 40.6173 367.408 39.9966 366.748 39.5605C366.089 39.1245 365.316 38.8923 364.526 38.8929Z" fill="#3F3D56"/>
<path d="M386.132 83.3393C386.131 83.8875 386.02 84.4299 385.805 84.9338L368.237 116.576C367.924 117.303 367.406 117.922 366.747 118.357C366.087 118.792 365.315 119.025 364.526 119.026H270.432C269.599 119.025 268.786 118.767 268.106 118.286C267.425 117.805 266.908 117.125 266.627 116.339L252.097 84.9228C251.919 84.4223 251.841 83.8915 251.868 83.3608C251.894 82.83 252.025 82.3098 252.252 81.8297C252.479 81.3496 252.799 80.9191 253.192 80.5629C253.585 80.2066 254.045 79.9316 254.544 79.7535C254.976 79.5971 255.432 79.5171 255.891 79.5169L271.307 79.4878L277.598 79.4769L360.391 79.3312L366.686 79.3203L382.091 79.2912H382.095C383.165 79.2914 384.192 79.7179 384.949 80.4771C385.706 81.2362 386.132 82.2657 386.132 83.3393Z" fill="#3F3D56"/>
<path d="M265.485 141.122C267.351 141.122 292.974 142.692 292.974 144.563C292.974 146.434 267.351 147.897 265.485 147.897C264.589 147.897 263.73 147.54 263.096 146.905C262.463 146.27 262.107 145.408 262.107 144.509C262.107 143.611 262.463 142.749 263.096 142.114C263.73 141.479 264.589 141.122 265.485 141.122Z" fill="#3F3D56"/>
<path d="M358.666 14.0229H279.327C277.2 14.0254 275.162 14.8734 273.658 16.381C272.155 17.8885 271.309 19.9325 271.307 22.0645V119.026H364.526C365.292 119.028 366.041 118.81 366.686 118.396V22.0645C366.684 19.9325 365.838 17.8885 364.335 16.381C362.831 14.8734 360.793 14.0254 358.666 14.0229Z" fill="#E6E6E6"/>
<path d="M328.383 20.5428H284.903C282.967 20.5447 281.111 21.3165 279.741 22.6889C278.372 24.0613 277.601 25.9223 277.598 27.8636V119.026H360.391V52.6364C360.381 44.1276 357.006 35.9702 351.005 29.9536C345.005 23.9371 336.869 20.5526 328.383 20.5428Z" fill="white"/>
<path d="M346.286 110.93H291.703C291.232 110.93 290.779 111.118 290.445 111.452C290.112 111.787 289.924 112.24 289.924 112.713C289.924 113.187 290.112 113.64 290.445 113.975C290.779 114.309 291.232 114.497 291.703 114.497H346.286C346.758 114.497 347.21 114.309 347.544 113.975C347.877 113.64 348.065 113.187 348.065 112.713C348.065 112.24 347.877 111.787 347.544 111.452C347.21 111.118 346.758 110.93 346.286 110.93Z" fill="#E4E4E4"/>
<path d="M346.286 103.875H291.703C291.231 103.875 290.778 104.063 290.444 104.398C290.11 104.732 289.923 105.187 289.923 105.66C289.923 106.134 290.11 106.588 290.444 106.923C290.778 107.258 291.231 107.446 291.703 107.446H346.286C346.758 107.446 347.211 107.258 347.545 106.923C347.879 106.588 348.067 106.134 348.067 105.66C348.067 105.187 347.879 104.732 347.545 104.398C347.211 104.063 346.758 103.875 346.286 103.875Z" fill="#E4E4E4"/>
<path d="M315.364 96.8232H291.703C291.232 96.8232 290.779 97.0111 290.445 97.3457C290.112 97.6802 289.924 98.1339 289.924 98.607C289.924 99.0801 290.112 99.5338 290.445 99.8683C290.779 100.203 291.232 100.391 291.703 100.391H315.364C315.836 100.391 316.288 100.203 316.622 99.8683C316.956 99.5338 317.143 99.0801 317.143 98.607C317.143 98.1339 316.956 97.6802 316.622 97.3457C316.288 97.0111 315.836 96.8232 315.364 96.8232Z" fill="#E4E4E4"/>
<path d="M346.286 82.0506H291.703C291.231 82.0506 290.778 82.2387 290.444 82.5736C290.11 82.9084 289.923 83.3626 289.923 83.8362C289.923 84.3097 290.11 84.7639 290.444 85.0988C290.778 85.4336 291.231 85.6218 291.703 85.6218H346.286C346.758 85.6218 347.211 85.4336 347.545 85.0988C347.879 84.7639 348.067 84.3097 348.067 83.8362C348.067 83.3626 347.879 82.9084 347.545 82.5736C347.211 82.2387 346.758 82.0506 346.286 82.0506Z" fill="#E4E4E4"/>
<path d="M346.286 74.9992H291.703C291.232 74.9992 290.779 75.1871 290.445 75.5216C290.112 75.8562 289.924 76.3099 289.924 76.783C289.924 77.256 290.112 77.7098 290.445 78.0443C290.779 78.3788 291.232 78.5667 291.703 78.5667H346.286C346.758 78.5667 347.21 78.3788 347.544 78.0443C347.877 77.7098 348.065 77.256 348.065 76.783C348.065 76.3099 347.877 75.8562 347.544 75.5216C347.21 75.1871 346.758 74.9992 346.286 74.9992Z" fill="#E4E4E4"/>
<path d="M315.364 67.9441H291.703C291.231 67.9441 290.778 68.1322 290.444 68.4671C290.11 68.802 289.923 69.2562 289.923 69.7297C289.923 70.2033 290.11 70.6575 290.444 70.9923C290.778 71.3272 291.231 71.5153 291.703 71.5153H315.364C315.836 71.5153 316.289 71.3272 316.623 70.9923C316.957 70.6575 317.145 70.2033 317.145 69.7297C317.145 69.2562 316.957 68.802 316.623 68.4671C316.289 68.1322 315.836 67.9441 315.364 67.9441Z" fill="#E4E4E4"/>
<path d="M346.286 53.1715H291.703C291.231 53.1715 290.778 53.3596 290.444 53.6945C290.11 54.0293 289.923 54.4835 289.923 54.9571C289.923 55.4307 290.11 55.8848 290.444 56.2197C290.778 56.5546 291.231 56.7427 291.703 56.7427H346.286C346.758 56.7427 347.211 56.5546 347.545 56.2197C347.879 55.8848 348.067 55.4307 348.067 54.9571C348.067 54.4835 347.879 54.0293 347.545 53.6945C347.211 53.3596 346.758 53.1715 346.286 53.1715Z" fill="#6C63FF"/>
<path d="M346.286 46.1201H291.703C291.231 46.1201 290.778 46.3082 290.444 46.6431C290.11 46.9779 289.923 47.4321 289.923 47.9057C289.923 48.3793 290.11 48.8334 290.444 49.1683C290.778 49.5032 291.231 49.6913 291.703 49.6913H346.286C346.758 49.6913 347.211 49.5032 347.545 49.1683C347.879 48.8334 348.067 48.3793 348.067 47.9057C348.067 47.4321 347.879 46.9779 347.545 46.6431C347.211 46.3082 346.758 46.1201 346.286 46.1201Z" fill="#6C63FF"/>
<path d="M315.364 39.065H291.703C291.231 39.065 290.778 39.2532 290.444 39.588C290.11 39.9229 289.923 40.3771 289.923 40.8506C289.923 41.3242 290.11 41.7784 290.444 42.1132C290.778 42.4481 291.231 42.6362 291.703 42.6362H315.364C315.836 42.6362 316.289 42.4481 316.623 42.1132C316.957 41.7784 317.145 41.3242 317.145 40.8506C317.145 40.3771 316.957 39.9229 316.623 39.588C316.289 39.2532 315.836 39.065 315.364 39.065Z" fill="#6C63FF"/>
<path d="M363.712 27.7854C371.364 27.7854 377.567 21.5654 377.567 13.8927C377.567 6.21997 371.364 0 363.712 0C356.06 0 349.856 6.21997 349.856 13.8927C349.856 21.5654 356.06 27.7854 363.712 27.7854Z" fill="#6C63FF"/>
<path d="M361.822 21.1232C361.582 21.1232 361.346 21.0673 361.132 20.96C360.918 20.8527 360.732 20.6969 360.589 20.5049L356.809 15.4513C356.687 15.289 356.598 15.1041 356.547 14.9073C356.496 14.7105 356.485 14.5055 356.513 14.3043C356.542 14.103 356.609 13.9093 356.713 13.7343C356.816 13.5593 356.952 13.4064 357.115 13.2844C357.277 13.1625 357.461 13.0738 357.658 13.0235C357.854 12.9732 358.059 12.9622 358.259 12.9913C358.46 13.0203 358.653 13.0887 358.827 13.1927C359.001 13.2966 359.154 13.434 359.275 13.597L361.748 16.9029L368.099 7.35009C368.326 7.00907 368.679 6.77232 369.079 6.69194C369.48 6.61156 369.897 6.69413 370.237 6.92148C370.577 7.14884 370.813 7.50235 370.893 7.90425C370.973 8.30616 370.891 8.72353 370.664 9.06456L363.104 20.435C362.967 20.6406 362.783 20.8104 362.568 20.93C362.352 21.0497 362.111 21.1158 361.865 21.1227C361.85 21.1229 361.836 21.1232 361.822 21.1232Z" fill="white"/>
</g>
<defs>
<clipPath id="clip0_2_35">
<rect width="231" height="190" fill="white" transform="translate(0 12)"/>
</clipPath>
<clipPath id="clip1_2_35">
<rect width="245" height="215" fill="white" transform="translate(229)"/>
</clipPath>
</defs>
</svg>
