<svg width="474" height="346" viewBox="0 0 474 346" fill="none" xmlns="http://www.w3.org/2000/svg">
<path d="M444.99 239.559C439.448 253.966 432.418 267.9 423.523 280.511C423.326 280.796 423.126 281.073 422.925 281.356L401.851 268.067C401.98 267.781 402.121 267.461 402.273 267.111C411.326 246.479 465.971 120.624 464.244 92.1196C464.446 94.4705 470.923 172.217 444.99 239.559Z" fill="#E6E6E6"/>
<path d="M424.469 283.075C424.174 283.298 423.871 283.517 423.567 283.728L407.758 273.759C407.979 273.55 408.236 273.303 408.532 273.025C413.376 268.393 427.778 254.495 441.87 239.559C457.014 223.508 471.804 206.262 474 198.03C473.554 199.918 459.693 257.299 424.469 283.075Z" fill="#E6E6E6"/>
<g filter="url(#filter0_d_31_518)">
<g filter="url(#filter1_d_31_518)">
<path d="M337.116 298.467H253.979C252.321 298.467 250.732 298.853 249.559 299.539C248.387 300.226 247.728 301.156 247.728 302.127C247.728 303.098 248.387 304.029 249.559 304.715C250.732 305.401 252.321 305.787 253.979 305.787H337.116C338.774 305.787 340.364 305.401 341.536 304.715C342.708 304.029 343.367 303.098 343.367 302.127C343.367 301.156 342.708 300.226 341.536 299.539C340.364 298.853 338.774 298.467 337.116 298.467Z" fill="black" fill-opacity="0.25" shape-rendering="crispEdges"/>
</g>
<g filter="url(#filter2_i_31_518)">
<path d="M136.617 91.4348C136.617 89.7779 137.96 88.4348 139.617 88.4348H423.94C425.597 88.4348 426.94 89.7779 426.94 91.4348V280.728C426.94 282.385 425.597 283.728 423.94 283.728H139.617C137.96 283.728 136.617 282.385 136.617 280.728V91.4348Z" fill="#D9D9D9"/>
</g>
<g filter="url(#filter3_d_31_518)">
<rect x="150.954" y="103.174" width="261.65" height="165.815" rx="3" fill="white"/>
</g>
<path d="M251.101 106.859H167.964C166.304 106.859 164.713 107.245 163.539 107.932C162.366 108.619 161.707 109.551 161.707 110.522C161.707 111.494 162.366 112.426 163.539 113.113C164.713 113.8 166.304 114.186 167.964 114.186H251.101C252.76 114.186 254.352 113.8 255.525 113.113C256.699 112.426 257.358 111.494 257.358 110.522C257.358 109.551 256.699 108.619 255.525 107.932C254.352 107.245 252.76 106.859 251.101 106.859Z" fill="#6C63FF"/>
<path d="M359.751 254.3H167.964C166.306 254.3 164.716 254.686 163.544 255.372C162.372 256.058 161.713 256.989 161.713 257.96C161.713 258.93 162.372 259.861 163.544 260.548C164.716 261.234 166.306 261.62 167.964 261.62H359.751C361.409 261.62 362.999 261.234 364.171 260.548C365.344 259.861 366.002 258.93 366.002 257.96C366.002 256.989 365.344 256.058 364.171 255.372C362.999 254.686 361.409 254.3 359.751 254.3Z" fill="#E4E4E4"/>
<path d="M359.751 239.825H167.964C166.304 239.825 164.713 240.211 163.539 240.898C162.366 241.585 161.707 242.517 161.707 243.489C161.707 244.46 162.366 245.392 163.539 246.079C164.713 246.766 166.304 247.152 167.964 247.152H359.751C361.411 247.152 363.002 246.766 364.176 246.079C365.349 245.392 366.008 244.46 366.008 243.489C366.008 242.517 365.349 241.585 364.176 240.898C363.002 240.211 361.411 239.825 359.751 239.825Z" fill="#E4E4E4"/>
<path d="M251.101 225.359H167.964C166.306 225.359 164.716 225.744 163.544 226.431C162.372 227.117 161.713 228.048 161.713 229.018C161.713 229.989 162.372 230.92 163.544 231.606C164.716 232.292 166.306 232.678 167.964 232.678H251.101C252.759 232.678 254.349 232.292 255.521 231.606C256.693 230.92 257.352 229.989 257.352 229.018C257.352 228.048 256.693 227.117 255.521 226.431C254.349 225.744 252.759 225.359 251.101 225.359Z" fill="#E4E4E4"/>
<path d="M359.751 195.05H167.964C166.304 195.05 164.713 195.436 163.539 196.123C162.366 196.81 161.707 197.742 161.707 198.714C161.707 199.685 162.366 200.617 163.539 201.304C164.713 201.991 166.304 202.377 167.964 202.377H359.751C361.411 202.377 363.002 201.991 364.176 201.304C365.349 200.617 366.008 199.685 366.008 198.714C366.008 197.742 365.349 196.81 364.176 196.123C363.002 195.436 361.411 195.05 359.751 195.05Z" fill="#E4E4E4"/>
<path d="M251.101 166.109H167.964C166.304 166.109 164.713 166.495 163.539 167.182C162.366 167.869 161.707 168.801 161.707 169.772C161.707 170.744 162.366 171.676 163.539 172.363C164.713 173.05 166.304 173.436 167.964 173.436H251.101C252.76 173.436 254.352 173.05 255.525 172.363C256.699 171.676 257.358 170.744 257.358 169.772C257.358 168.801 256.699 167.869 255.525 167.182C254.352 166.495 252.76 166.109 251.101 166.109Z" fill="#E4E4E4"/>
<path d="M359.751 135.8H167.964C166.304 135.8 164.713 136.186 163.539 136.873C162.366 137.56 161.707 138.492 161.707 139.464C161.707 140.435 162.366 141.367 163.539 142.054C164.713 142.741 166.304 143.127 167.964 143.127H359.751C361.411 143.127 363.002 142.741 364.176 142.054C365.349 141.367 366.008 140.435 366.008 139.464C366.008 138.492 365.349 137.56 364.176 136.873C363.002 136.186 361.411 135.8 359.751 135.8Z" fill="#6C63FF"/>
<path d="M359.751 121.333H167.964C166.304 121.333 164.713 121.719 163.539 122.406C162.366 123.093 161.707 124.025 161.707 124.997C161.707 125.968 162.366 126.9 163.539 127.587C164.713 128.274 166.304 128.66 167.964 128.66H359.751C361.411 128.66 363.002 128.274 364.176 127.587C365.349 126.9 366.008 125.968 366.008 124.997C366.008 124.025 365.349 123.093 364.176 122.406C363.002 121.719 361.411 121.333 359.751 121.333Z" fill="#6C63FF"/>
<path d="M359.751 180.583H167.964C166.306 180.583 164.716 180.969 163.544 181.655C162.372 182.342 161.713 183.273 161.713 184.243C161.713 185.214 162.372 186.145 163.544 186.831C164.716 187.517 166.306 187.903 167.964 187.903H359.751C361.409 187.903 362.999 187.517 364.171 186.831C365.344 186.145 366.002 185.214 366.002 184.243C366.002 183.273 365.344 182.342 364.171 181.655C362.999 180.969 361.409 180.583 359.751 180.583Z" fill="#E4E4E4"/>
<g filter="url(#filter4_d_31_518)">
<path d="M301.735 218.208L375.879 171.5L409.775 224.31L403.587 291.219L336.505 273.629L301.735 218.208Z" fill="#CCCCCC"/>
</g>
<g filter="url(#filter5_d_31_518)">
<path d="M439.841 327.284L396.857 265.862C396.485 265.331 395.431 265.333 393.926 265.869C392.421 266.404 390.588 267.429 388.831 268.717C387.074 270.005 385.537 271.452 384.557 272.738C383.578 274.024 383.236 275.045 383.608 275.576L426.592 336.998C426.963 337.529 428.018 337.527 429.523 336.991C431.028 336.456 432.86 335.431 434.617 334.143C436.374 332.855 437.911 331.408 438.891 330.122C439.871 328.835 440.212 327.814 439.841 327.284Z" fill="#6C63FF"/>
</g>
<g filter="url(#filter6_dd_31_518)">
<path d="M305.236 218.286L374.22 174.862L405.843 224.095L400.16 286.415L337.677 269.951L305.236 218.286Z" fill="#D9D9D9"/>
</g>
<path d="M171.989 317.713C171.989 318.169 171.633 318.535 171.189 318.535H4.80069C4.35664 318.535 4.00001 318.169 4.00001 317.713C4.00001 317.492 4.08079 317.299 4.21532 317.154H64.5831C65.8682 317.154 67.1264 317.064 68.3645 316.891H171.189C171.633 316.891 171.989 317.257 171.989 317.713Z" fill="#3F3D56"/>
<path d="M94.7677 40.8226C85.2639 40.8226 77.5595 32.9128 77.5595 23.1557C77.5595 13.3986 85.2639 5.48895 94.7677 5.48895C104.272 5.48895 111.976 13.3986 111.976 23.1557C111.976 32.9128 104.272 40.8226 94.7677 40.8226Z" fill="#FFB6B6"/>
<path d="M62.1643 145.7L56.1087 166.423L72.257 286.618H83.1894L89.0781 196.127L95.8066 227.211L61.4915 272.112L70.2385 282.474L119.693 233.083L118.683 156.752L114.646 145.009L62.1643 145.7Z" fill="#2F2E41"/>
<path d="M80.3408 37.6687L81.6848 37.7366C81.6848 37.7366 82.8866 26.7316 83.5917 26.0757C84.2969 25.4197 85.5747 26.8676 85.5747 26.8676C85.5747 26.8676 91.1165 23.6898 91.2821 20.2401C91.4476 16.7904 91.58 14.0306 93.5961 14.1326C95.6122 14.2346 106.904 17.5722 109.592 17.7081C112.281 17.8441 116.544 13.2185 112.039 8.8409C107.533 4.46333 103.567 2.87952 102.928 2.15558C102.29 1.43164 98.0829 -1.54757 94.4077 1.03301C90.7326 3.61359 86.0284 3.37566 86.0284 3.37566C86.0284 3.37566 77.1926 5.00361 78.3381 9.21123C79.4835 13.4188 75.054 21.4942 76.8714 25.7358C78.6889 29.9774 80.3408 37.6687 80.3408 37.6687Z" fill="#2F2E41"/>
<path d="M83.6953 284.546L71.5841 285.927L70.2384 308.723C70.2384 308.723 70.9112 319.775 82.3496 318.394C93.788 317.012 90.4238 305.96 90.4238 305.96L83.6953 284.546Z" fill="#2F2E41"/>
<path d="M67.8835 268.313C67.8835 268.313 59.1365 264.168 57.7908 269.003L55.0995 278.674C55.0995 278.674 55.0995 288.345 54.4266 289.036C53.7538 289.727 40.9697 307.687 52.4081 317.358C52.4081 317.358 58.4637 318.049 61.8279 308.378C65.1921 298.707 75.2848 289.036 75.2848 289.036C75.2848 289.036 77.2398 284.2 73.9073 284.546C70.5749 284.891 65.865 276.602 67.2107 273.839C68.5564 271.076 67.8835 268.313 67.8835 268.313Z" fill="#2F2E41"/>
<path d="M194.564 89.1171C194.734 92.604 190.557 95.6496 185.23 95.9201C183.104 96.0583 180.976 95.6704 179.024 94.789L172.985 95.018L172.969 95.124L145.02 101.019C138.521 102.389 131.7 100.685 126.71 96.18C123.741 93.4999 123.811 88.4745 126.71 85.8955C131.521 81.6162 152.228 84.7989 165.09 85.8955L178.547 85.0501C180.403 83.9746 182.483 83.3725 184.613 83.2943C189.938 83.0231 194.393 85.6303 194.564 89.1171Z" fill="#FFB6B6"/>
<path d="M100.853 45.8828L78.6491 46.5736L57.118 56.2445L60.4823 113.579C60.4823 113.579 56.4452 126.704 58.4637 128.776C60.4823 130.848 58.4637 140.138 59.8094 140.329C61.1551 140.519 59.8094 150.511 59.8094 150.511C59.8094 150.511 78.6491 143.973 94.7974 148.118C110.946 152.262 116.328 145.355 116.328 145.355C116.328 145.355 120.366 128.776 120.366 125.322V54.6943L100.853 45.8828Z" fill="#6C63FF"/>
<path d="M109.91 50.2904C109.91 50.2904 119.33 47.5273 124.04 54.435C128.75 61.3428 131.441 61.3428 131.441 70.3229C131.441 70.3229 136.17 80.6053 134.825 84.75L129.448 99.4891C129.448 99.4891 111.929 85.29 111.256 78.3822C110.583 71.4745 109.91 50.2904 109.91 50.2904Z" fill="#6C63FF"/>
<path d="M43.6052 193.697C40.2131 193.514 37.6901 188.93 37.9696 183.456C38.052 181.268 38.6436 179.132 39.695 177.227L40.0872 171.028L39.9862 171.002L37.1218 141.82C36.4558 135.034 38.7979 128.235 43.6655 123.594C46.5611 120.834 49.7119 119.361 51.9132 122.59C55.566 127.947 52.0872 150.852 49.7186 163.891L49.1692 177.737C50.0215 179.745 50.3927 181.933 50.2519 184.119C49.9733 189.591 46.9972 193.879 43.6052 193.697Z" fill="#FFB6B6"/>
<path d="M60.8299 55.2718C60.8299 55.2718 52.546 55.8178 50.7265 62.3236C48.907 68.8295 46.7614 69.5791 49.2774 76.3313C49.2774 76.3313 38.5099 114.14 40.744 116.882L38.648 126.713L54.0378 128.967C54.0378 128.967 56.9522 122.96 55.4039 118.804C53.8556 114.649 62.4716 98.7246 62.4716 98.7246C62.4716 98.7246 68.5106 80.7653 67.1116 75.3839C65.7126 70.0024 60.8299 55.2718 60.8299 55.2718Z" fill="#6C63FF"/>
</g>
<path d="M79.2689 49.0509C79.9418 48.3601 85.3246 33.8538 85.3246 33.8538L98.1086 33.163L103.958 47.3212L79.2689 49.0509Z" fill="#FFB6B6"/>
<defs>
<filter id="filter0_d_31_518" x="0" y="0" width="443.987" height="345.395" filterUnits="userSpaceOnUse" color-interpolation-filters="sRGB">
<feFlood flood-opacity="0" result="BackgroundImageFix"/>
<feColorMatrix in="SourceAlpha" type="matrix" values="0 0 0 0 0 0 0 0 0 0 0 0 0 0 0 0 0 0 127 0" result="hardAlpha"/>
<feOffset dy="4"/>
<feGaussianBlur stdDeviation="2"/>
<feComposite in2="hardAlpha" operator="out"/>
<feColorMatrix type="matrix" values="0 0 0 0 0 0 0 0 0 0 0 0 0 0 0 0 0 0 0.25 0"/>
<feBlend mode="normal" in2="BackgroundImageFix" result="effect1_dropShadow_31_518"/>
<feBlend mode="normal" in="SourceGraphic" in2="effect1_dropShadow_31_518" result="shape"/>
</filter>
<filter id="filter1_d_31_518" x="243.728" y="298.467" width="103.638" height="15.3194" filterUnits="userSpaceOnUse" color-interpolation-filters="sRGB">
<feFlood flood-opacity="0" result="BackgroundImageFix"/>
<feColorMatrix in="SourceAlpha" type="matrix" values="0 0 0 0 0 0 0 0 0 0 0 0 0 0 0 0 0 0 127 0" result="hardAlpha"/>
<feOffset dy="4"/>
<feGaussianBlur stdDeviation="2"/>
<feComposite in2="hardAlpha" operator="out"/>
<feColorMatrix type="matrix" values="0 0 0 0 0 0 0 0 0 0 0 0 0 0 0 0 0 0 0.25 0"/>
<feBlend mode="normal" in2="BackgroundImageFix" result="effect1_dropShadow_31_518"/>
<feBlend mode="normal" in="SourceGraphic" in2="effect1_dropShadow_31_518" result="shape"/>
</filter>
<filter id="filter2_i_31_518" x="136.617" y="88.4348" width="290.324" height="199.293" filterUnits="userSpaceOnUse" color-interpolation-filters="sRGB">
<feFlood flood-opacity="0" result="BackgroundImageFix"/>
<feBlend mode="normal" in="SourceGraphic" in2="BackgroundImageFix" result="shape"/>
<feColorMatrix in="SourceAlpha" type="matrix" values="0 0 0 0 0 0 0 0 0 0 0 0 0 0 0 0 0 0 127 0" result="hardAlpha"/>
<feOffset dy="4"/>
<feGaussianBlur stdDeviation="2"/>
<feComposite in2="hardAlpha" operator="arithmetic" k2="-1" k3="1"/>
<feColorMatrix type="matrix" values="0 0 0 0 0 0 0 0 0 0 0 0 0 0 0 0 0 0 0.25 0"/>
<feBlend mode="normal" in2="shape" result="effect1_innerShadow_31_518"/>
</filter>
<filter id="filter3_d_31_518" x="146.954" y="103.174" width="269.65" height="173.815" filterUnits="userSpaceOnUse" color-interpolation-filters="sRGB">
<feFlood flood-opacity="0" result="BackgroundImageFix"/>
<feColorMatrix in="SourceAlpha" type="matrix" values="0 0 0 0 0 0 0 0 0 0 0 0 0 0 0 0 0 0 127 0" result="hardAlpha"/>
<feOffset dy="4"/>
<feGaussianBlur stdDeviation="2"/>
<feComposite in2="hardAlpha" operator="out"/>
<feColorMatrix type="matrix" values="0 0 0 0 0 0 0 0 0 0 0 0 0 0 0 0 0 0 0.25 0"/>
<feBlend mode="normal" in2="BackgroundImageFix" result="effect1_dropShadow_31_518"/>
<feBlend mode="normal" in="SourceGraphic" in2="effect1_dropShadow_31_518" result="shape"/>
</filter>
<filter id="filter4_d_31_518" x="297.735" y="171.5" width="116.04" height="127.72" filterUnits="userSpaceOnUse" color-interpolation-filters="sRGB">
<feFlood flood-opacity="0" result="BackgroundImageFix"/>
<feColorMatrix in="SourceAlpha" type="matrix" values="0 0 0 0 0 0 0 0 0 0 0 0 0 0 0 0 0 0 127 0" result="hardAlpha"/>
<feOffset dy="4"/>
<feGaussianBlur stdDeviation="2"/>
<feComposite in2="hardAlpha" operator="out"/>
<feColorMatrix type="matrix" values="0 0 0 0 0 0 0 0 0 0 0 0 0 0 0 0 0 0 0.25 0"/>
<feBlend mode="normal" in2="BackgroundImageFix" result="effect1_dropShadow_31_518"/>
<feBlend mode="normal" in="SourceGraphic" in2="effect1_dropShadow_31_518" result="shape"/>
</filter>
<filter id="filter5_d_31_518" x="379.461" y="265.465" width="64.5259" height="79.9292" filterUnits="userSpaceOnUse" color-interpolation-filters="sRGB">
<feFlood flood-opacity="0" result="BackgroundImageFix"/>
<feColorMatrix in="SourceAlpha" type="matrix" values="0 0 0 0 0 0 0 0 0 0 0 0 0 0 0 0 0 0 127 0" result="hardAlpha"/>
<feOffset dy="4"/>
<feGaussianBlur stdDeviation="2"/>
<feComposite in2="hardAlpha" operator="out"/>
<feColorMatrix type="matrix" values="0 0 0 0 0 0 0 0 0 0 0 0 0 0 0 0 0 0 0.25 0"/>
<feBlend mode="normal" in2="BackgroundImageFix" result="effect1_dropShadow_31_518"/>
<feBlend mode="normal" in="SourceGraphic" in2="effect1_dropShadow_31_518" result="shape"/>
</filter>
<filter id="filter6_dd_31_518" x="301.236" y="174.862" width="108.608" height="119.553" filterUnits="userSpaceOnUse" color-interpolation-filters="sRGB">
<feFlood flood-opacity="0" result="BackgroundImageFix"/>
<feColorMatrix in="SourceAlpha" type="matrix" values="0 0 0 0 0 0 0 0 0 0 0 0 0 0 0 0 0 0 127 0" result="hardAlpha"/>
<feOffset dy="4"/>
<feGaussianBlur stdDeviation="2"/>
<feComposite in2="hardAlpha" operator="out"/>
<feColorMatrix type="matrix" values="0 0 0 0 0 0 0 0 0 0 0 0 0 0 0 0 0 0 0.25 0"/>
<feBlend mode="normal" in2="BackgroundImageFix" result="effect1_dropShadow_31_518"/>
<feColorMatrix in="SourceAlpha" type="matrix" values="0 0 0 0 0 0 0 0 0 0 0 0 0 0 0 0 0 0 127 0" result="hardAlpha"/>
<feOffset dy="4"/>
<feGaussianBlur stdDeviation="2"/>
<feComposite in2="hardAlpha" operator="out"/>
<feColorMatrix type="matrix" values="0 0 0 0 0 0 0 0 0 0 0 0 0 0 0 0 0 0 0.25 0"/>
<feBlend mode="normal" in2="effect1_dropShadow_31_518" result="effect2_dropShadow_31_518"/>
<feBlend mode="normal" in="SourceGraphic" in2="effect2_dropShadow_31_518" result="shape"/>
</filter>
</defs>
</svg>
